<?xml version="1.0" encoding="UTF-8"?>
<!DOCTYPE svg PUBLIC "-//W3C//DTD SVG 1.1//EN" "http://www.w3.org/Graphics/SVG/1.1/DTD/svg11.dtd">
<!-- Creator: CorelDRAW X7 -->
<svg xmlns="http://www.w3.org/2000/svg" xml:space="preserve" width="260mm" height="350mm" version="1.1" style="shape-rendering:geometricPrecision; text-rendering:geometricPrecision; image-rendering:optimizeQuality; fill-rule:evenodd; clip-rule:evenodd"
viewBox="0 0 26000 35000"
 xmlns:xlink="http://www.w3.org/1999/xlink">
 <defs>
  <style type="text/css">
   <![CDATA[
    .str6 {stroke:#2B2A29;stroke-width:100}
    .str5 {stroke:#2B2A29;stroke-width:200}
    .str3 {stroke:#2B2A29;stroke-width:300}
    .str1 {stroke:#2B2A29;stroke-width:75}
    .str0 {stroke:#2B2A29;stroke-width:20}
    .str2 {stroke:#593C1E;stroke-width:20}
    .str8 {stroke:#121619;stroke-width:20}
    .str4 {stroke:#553B3C;stroke-width:20}
    .str7 {stroke:#8C4043;stroke-width:20}
    .fil11 {fill:none}
    .fil21 {fill:#EBECEC}
    .fil5 {fill:#D9DADA}
    .fil0 {fill:#9D9E9E}
    .fil1 {fill:#898989}
    .fil12 {fill:#727271}
    .fil14 {fill:#5B5B5B}
    .fil13 {fill:#86776F}
    .fil15 {fill:#E31E24}
    .fil9 {fill:#CD86A9}
    .fil4 {fill:#593C1E}
    .fil24 {fill:#A9D0E2}
    .fil22 {fill:#A9D0E2}
    .fil2 {fill:#263F6E}
    .fil17 {fill:#263F6E}
    .fil3 {fill:#1D2B46}
    .fil18 {fill:#202231}
    .fil23 {fill:#050102}
    .fil16 {fill:#110B0B}
    .fil6 {fill:#5C2D2F}
    .fil7 {fill:#8C4043}
    .fil19 {fill:#B59579}
    .fil20 {fill:#B59579}
    .fil10 {fill:#BA556F}
    .fil8 {fill:#CFAC8E}
   ]]>
  </style>
 </defs>
 <g id="Layer_x0020_1">
  <metadata id="CorelCorpID_0Corel-Layer"/>
  <path class="fil0 str0" d="M16000 18116c-184,-47 -532,-140 -723,-165 -191,-24 -224,21 -272,209 -48,188 -112,519 -149,705 -38,187 -48,229 -21,276 27,47 93,98 221,117 128,19 319,5 453,33 135,28 214,98 273,143 58,46 96,67 140,-72 44,-139 95,-440 145,-666 51,-225 102,-376 119,-453 16,-77 -3,-79 -186,-127z"/>
  <path class="fil1 str0" d="M14432 19672c14,73 48,107 73,122 25,16 41,14 59,-21 19,-34 40,-99 61,-186 21,-86 42,-194 44,-264 2,-69 -14,-101 -9,-114 5,-13 32,-8 81,-2 49,5 120,11 156,13 35,3 35,3 34,2 -2,-2 -5,-4 -16,-11 -11,-7 -29,-19 -43,-31 -15,-12 -26,-26 -33,-35 -7,-10 -10,-16 -12,-26 -3,-9 -5,-22 -5,-42 1,-20 4,-47 4,-60 0,-14 -3,-14 -41,-18 -38,-3 -111,-10 -157,-15 -47,-5 -66,-7 -83,3 -16,10 -29,32 -39,67 -9,36 -14,84 -26,140 -13,56 -33,119 -45,206 -13,87 -18,199 -3,272z"/>
  <path class="fil2 str0" d="M5040 21378c42,-53 126,-159 241,-285 116,-127 263,-274 363,-436 99,-163 152,-342 199,-452 47,-110 89,-152 126,-199 37,-48 68,-100 163,-210 94,-111 252,-279 320,-357 68,-79 47,-69 53,5 5,73 36,210 94,388 58,179 142,399 257,641 116,241 263,504 336,667 74,163 74,227 80,258 7,32 20,32 2467,32 2447,0 7328,0 9821,-212 2493,-212 2598,-637 2565,-1076 -34,-438 -206,-891 -299,-1141 -94,-250 -110,-297 -123,-337 -13,-39 -24,-70 -37,-107 -13,-37 -29,-79 -60,-118 -32,-40 -79,-76 -126,-95 -48,-18 -95,-18 -118,-50 -24,-31 -24,-94 -35,-165 -10,-71 -31,-150 -68,-270 -37,-121 -89,-284 -131,-413 -42,-128 -73,-223 -87,-312 -13,-89 -7,-173 -7,-255 0,-81 -6,-160 -24,-249 -18,-89 -50,-189 -87,-283 -36,-95 -78,-184 -120,-247 -42,-63 -84,-100 -105,-139 -21,-40 -21,-82 -23,-162 -2,-80 -6,-198 -19,-270 -12,-72 -33,-99 -62,-143 -29,-45 -66,-108 -97,-163 -32,-55 -58,-102 -82,-134 -23,-31 -44,-47 -60,-63 -16,-16 -26,-31 -37,-65 -10,-35 -21,-87 -44,-158 -24,-71 -61,-160 -98,-241 -36,-82 -73,-155 -112,-218 -40,-63 -82,-116 -142,-187 -61,-70 -139,-160 -292,-283 -152,-123 -378,-281 -580,-391 -202,-110 -380,-173 -577,-226 -197,-52 -412,-94 -659,-181 -247,-87 -525,-218 -693,-297 -168,-78 -226,-105 -270,-131 -45,-26 -76,-52 -134,-92 -58,-39 -142,-92 -252,-136 -110,-45 -247,-82 -355,-100 -107,-18 -186,-18 -233,-18 -47,0 -63,0 -79,-14 -16,-13 -31,-39 -63,-73 -31,-34 -79,-76 -244,-134 -165,-58 -449,-131 -622,-176 -173,-44 -236,-60 -312,-84 -77,-23 -166,-55 -305,-115 -139,-61 -328,-150 -441,-202 -113,-53 -150,-69 -176,-90 -26,-21 -42,-47 -643,-122 -601,-75 -1788,-198 -2381,-257 -593,-59 -593,-54 -590,-4 2,50 8,145 -13,231 -21,87 -69,165 -100,242 -32,76 -47,149 -116,199 -68,50 -189,76 -270,92 -81,16 -123,21 -285,41 -161,19 -442,53 -702,123 -260,70 -499,175 -668,251 -169,76 -269,123 -423,195 -153,72 -361,170 -624,319 -264,150 -584,352 -860,506 -276,153 -507,258 -651,311 -144,52 -202,52 -268,52 -65,0 -139,0 -218,29 -78,29 -162,87 -307,176 -144,89 -349,210 -509,338 -160,129 -276,266 -349,378 -74,113 -105,203 -137,339 -31,137 -63,320 -92,483 -28,163 -55,305 -94,441 -39,136 -92,268 -131,409 -40,142 -66,294 -92,418 -26,123 -53,218 -76,302 -24,84 -45,157 -55,249 -11,92 -11,202 -6,289 6,86 16,149 19,228 2,79 -3,173 -11,271 -8,97 -18,196 -34,294 -16,97 -37,191 -45,280 -7,90 -2,174 -64,274 -62,100 -190,217 -275,381 -86,163 -128,373 -172,538 -45,166 -92,287 -129,407 -37,121 -63,242 -113,328 -50,87 -123,140 -233,184 -111,45 -258,82 -376,168 -118,87 -207,223 -244,337 -37,114 -21,205 -13,251 8,45 8,45 58,45 50,0 149,0 483,0 333,0 900,0 1467,0 568,0 1135,0 1419,0 284,0 285,1 286,1 0,0 0,-1 42,-53z"/>
  <path class="fil3" d="M11218 11097c-231,-24 -442,-46 -607,-62 -593,-59 -593,-54 -590,-4 2,50 8,145 -13,231 -21,87 -69,165 -100,242 -32,76 -47,149 -116,199 -68,50 -189,76 -270,92 -51,10 -86,16 -144,23 -11,32 -24,61 -37,92 -13,33 -28,67 -49,123 -21,56 -50,133 -85,262 -12,45 -35,91 -48,144 -25,100 -39,212 -58,298 -29,132 -46,215 -22,302 23,87 88,178 187,267 99,89 233,175 442,178 209,3 494,-78 774,-192 279,-114 553,-262 755,-466 202,-205 331,-466 402,-668 72,-202 86,-346 -4,-532 -83,-170 -253,-377 -417,-529z"/>
  <path class="fil3 str0" d="M19831 14056c-25,-25 -52,-53 -85,-83 -3,9 -6,18 -10,27 -26,68 -60,164 -102,282 -41,117 -90,256 -151,379 -61,123 -134,231 -171,287 -38,55 -40,59 -39,62 1,3 6,7 12,12 6,5 14,13 19,19 6,5 10,10 13,13 2,2 3,4 4,4 1,1 1,2 23,-19 22,-20 65,-62 107,-120 41,-57 81,-130 116,-197 35,-67 65,-126 93,-202 28,-76 54,-167 82,-247 28,-80 58,-149 77,-190 4,-11 8,-20 12,-27z"/>
  <path class="fil3 str0" d="M6139 13127c-31,18 -62,36 -93,54 4,2 8,4 12,7 56,35 70,52 65,78 -6,27 -32,64 -83,135 -51,70 -127,175 -189,249 -61,73 -108,115 -143,147 -34,31 -55,52 -69,63 -15,10 -22,10 -74,-24 -51,-34 -145,-102 -216,-155 -59,-43 -102,-76 -140,-108 -76,20 -120,20 -168,20 -36,0 -75,0 -116,5 -31,54 -92,116 -169,206 -111,129 -239,326 -377,512 -194,260 -103,233 -114,295 -8,52 46,-39 63,-58 117,-135 218,-348 335,-511 116,-162 219,-283 282,-349 64,-65 89,-76 115,-74 25,1 51,14 117,61 66,47 171,129 243,181 72,51 111,74 86,134 -24,61 -114,159 -179,252 -66,92 -108,179 -136,243 -27,64 -40,106 -55,161 -14,56 -30,124 -42,177 -13,54 -22,93 -27,112 -4,19 -28,197 -20,192 3,-2 17,-5 15,-8 -11,-21 38,-55 53,-64 18,-11 50,-34 72,-47 21,-12 23,-119 25,-145 2,-27 6,-79 19,-137 14,-57 36,-120 66,-187 30,-66 68,-135 110,-200 42,-65 88,-126 128,-180 40,-55 75,-103 104,-119 30,-16 55,1 144,58 89,56 243,152 371,229 129,77 257,148 270,140 30,-18 61,-25 82,-35 104,-52 109,-9 -45,-93 -108,-59 -274,-155 -400,-235 -126,-81 -209,-144 -249,-175 -41,-31 -40,-29 -24,-49 16,-20 46,-60 98,-127 52,-67 125,-160 183,-237 58,-76 100,-135 123,-166 23,-32 26,-36 40,-33 14,3 38,12 92,27 55,15 140,36 216,67 76,32 143,74 199,108 56,34 102,60 125,72 23,12 465,290 468,282 3,-8 7,-37 14,-55 8,-18 6,-28 11,-42 6,-14 -424,-296 -482,-331 -58,-35 -174,-98 -261,-137 -87,-38 -144,-52 -185,-62 -41,-11 -64,-18 -91,-29 -26,-10 -55,-24 -75,-32 -21,-8 -33,-11 -53,-21 -17,-8 -39,-21 -71,-42z"/>
  <path class="fil3 str1" d="M18361 13228c-42,-10 -84,-20 -128,-31 -48,47 -85,83 -125,118 -44,38 -91,75 -162,127 -71,53 -165,121 -216,155 -52,34 -59,34 -74,24 -14,-11 -35,-32 -69,-63 -35,-32 -82,-74 -144,-147 -61,-74 -137,-179 -188,-250 -51,-70 -77,-107 -83,-134 -5,-27 9,-43 65,-79 30,-18 71,-42 107,-65 -38,-18 -75,-34 -109,-50 -20,13 -39,27 -56,39 -45,31 -74,48 -94,57 -21,10 -32,14 -53,22 -20,8 -49,21 -75,32 -27,10 -50,18 -91,29 -41,10 -98,23 -185,62 -87,38 -203,102 -261,137 -58,35 -57,41 -52,55 5,14 15,37 22,55 8,18 12,31 15,39 3,7 3,9 26,-3 23,-12 69,-38 125,-72 56,-34 123,-76 199,-108 76,-31 161,-52 216,-67 54,-16 78,-25 92,-27 13,-3 17,1 40,32 23,32 65,91 123,167 58,76 131,169 183,236 52,67 82,108 98,128 16,19 17,18 -24,49 -40,31 -123,94 -249,175 -126,80 -295,179 -400,235 -104,56 -144,70 -164,77 -19,6 -19,6 -16,20 3,14 10,42 14,63 5,20 8,33 9,40 1,6 1,6 23,2 21,-4 63,-13 136,-47 72,-33 176,-91 305,-167 128,-77 282,-173 371,-229 89,-57 114,-74 144,-58 29,16 64,64 104,119 40,54 86,114 128,179 42,65 80,135 110,201 30,67 52,130 65,187 14,58 18,110 20,136 2,27 2,27 23,36 22,10 66,29 90,40 25,11 30,13 33,15 3,1 3,1 -1,-18 -5,-20 -14,-58 -27,-112 -12,-53 -28,-122 -42,-177 -15,-55 -28,-97 -56,-161 -27,-65 -69,-151 -135,-244 -65,-92 -155,-191 -180,-251 -24,-60 15,-83 87,-135 72,-51 177,-133 243,-180 66,-47 92,-60 117,-62 26,-1 51,9 115,75 63,66 166,186 282,349 117,163 248,368 335,511 87,143 129,224 162,326 34,101 60,223 74,284 15,61 18,63 32,70 13,8 37,23 39,-27 3,-50 -17,-164 -77,-325 -59,-161 -159,-368 -281,-565 -122,-197 -266,-383 -377,-512 -110,-129 -186,-200 -191,-270 -2,-23 3,-45 13,-67z"/>
  <path class="fil4 str0" d="M16119 12646c160,341 421,1021 559,1665 139,645 154,1254 123,1823 -32,570 -110,1100 -175,1550 -64,449 -114,817 -305,914 -190,96 -521,-80 -823,-121 -301,-40 -574,54 -639,-265 -64,-320 81,-1053 171,-1677 91,-624 128,-1138 136,-1540 8,-401 -13,-690 -71,-1010 -58,-321 -152,-672 -213,-948 -60,-276 -86,-475 -138,-665 -51,-190 -127,-371 -165,-462 -38,-90 -38,-90 -38,-90 1,0 3,0 16,1 12,2 36,5 73,15 36,10 85,26 149,44 64,19 142,39 211,57 70,18 131,35 191,51 61,17 122,35 177,51 55,17 104,33 159,56 55,23 116,53 153,74 38,21 51,33 65,51 13,18 25,40 42,55 17,14 38,20 79,24 41,4 102,6 263,347z"/>
  <path class="fil5 str2" d="M18709 14962c-130,-76 -379,-202 -624,-307 -246,-105 -487,-189 -641,-251 -153,-62 -219,-101 -266,-112 -48,-10 -76,8 -225,96 -148,88 -416,246 -733,432 -318,186 -686,402 -896,524 -209,122 -262,151 -290,195 -27,45 -30,105 -42,229 -11,123 -32,309 -53,527 -21,218 -42,467 -65,634 -22,167 -46,251 -56,305 -11,53 -8,77 1,95 9,19 25,32 91,4 65,-27 181,-96 441,-250 260,-155 664,-397 1044,-609 381,-213 738,-397 1052,-569 313,-172 584,-332 812,-466 229,-133 415,-241 503,-308 88,-67 77,-93 -53,-169z"/>
  <polygon class="fil5 str0" points="12004,17176 13426,18103 12954,16560 14009,15757 12839,15770 "/>
  <polygon class="fil5 str0" points="12145,14969 11962,14481 11410,15694 9993,15835 11112,16757 "/>
  <path class="fil6 str0" d="M10358 20937c-34,100 -101,297 -136,395 -35,98 -37,98 -104,98 -67,0 -199,0 -282,0 -83,0 -117,0 -145,0 -28,0 -49,0 -79,-28 -30,-27 -69,-83 -30,-193 39,-110 156,-275 283,-350 126,-75 262,-61 351,-51 90,9 133,13 155,16 22,3 23,4 22,6 0,3 -1,7 -35,107z"/>
  <path class="fil7 str0" d="M10044 21116c-27,76 -66,195 -99,255 -32,59 -57,59 -222,59 -166,0 -472,0 -820,0 -347,-1 -736,-1 -950,-2 -214,0 -253,-1 -277,-1 -23,0 -31,0 155,-232 187,-232 567,-695 758,-927 190,-231 190,-231 188,-223 -2,9 -7,27 -1,50 5,23 21,51 47,86 27,34 65,75 139,141 75,67 186,159 305,245 120,86 246,166 350,227 105,60 187,101 256,135 69,33 124,58 160,65 36,7 53,-5 54,5 0,10 -15,42 -43,117z"/>
  <path class="fil6 str0" d="M9237 20040c-208,-93 -313,-105 -373,-90 -59,14 -72,56 -85,87 -13,30 -26,48 8,102 34,54 115,143 244,253 129,111 305,242 471,343 167,101 324,172 407,213 83,40 91,51 113,59 22,7 59,13 125,-10 65,-22 160,-72 207,-111 47,-40 47,-68 33,-103 -15,-34 -43,-73 -99,-125 -55,-51 -137,-115 -334,-233 -197,-119 -508,-292 -717,-385z"/>
  <path class="fil8 str0" d="M10932 11919c231,270 341,386 446,459 105,74 205,105 315,131 110,27 231,48 370,27 139,-21 297,-84 449,-192 152,-108 299,-260 488,-488 189,-229 420,-533 565,-811 144,-279 202,-531 249,-885 47,-354 84,-811 10,-1323 -73,-512 -257,-1079 -483,-1278 -225,-200 -493,-32 -1044,39 -552,71 -1386,45 -1877,181 -491,137 -638,436 -706,685 -68,250 -58,449 -21,712 37,262 100,588 155,869 55,280 102,517 301,847 200,331 552,756 783,1027z"/>
  <path class="fil8 str0" d="M11381 10040c-17,70 -49,186 -58,274 -9,89 4,151 39,186 36,35 93,45 152,55 60,11 120,22 161,41 40,20 61,46 92,68 31,22 72,41 95,49 4,2 7,3 10,3 4,1 8,-1 14,-2 23,-9 64,-27 95,-50 31,-22 52,-48 92,-67 41,-19 101,-31 160,-42 60,-10 117,-19 153,-55 35,-35 48,-97 39,-185 -9,-89 -41,-205 -58,-275 -17,-70 -19,-95 -10,-136 10,-40 33,-97 -47,-158 -79,-61 -260,-126 -354,-136 -43,-5 -68,2 -82,30 -14,-28 -39,-35 -82,-30 -94,9 -275,75 -354,136 -80,61 -57,117 -48,158 10,41 8,66 -9,136z"/>
  <path class="fil9 str0" d="M11232 11233c-4,16 45,90 98,160 53,70 111,137 180,185 69,47 149,74 229,91 80,17 160,24 204,27 41,3 51,4 55,3 7,0 20,-1 50,-3 44,-3 124,-10 204,-27 80,-17 160,-45 229,-92 69,-47 127,-114 180,-184 53,-71 102,-144 98,-161 -4,-16 -61,25 -118,48 -58,23 -117,28 -203,35 -86,7 -199,17 -275,21 -76,5 -116,5 -136,5 -7,1 -56,1 -63,1 -4,0 -60,-1 -136,-5 -76,-5 -189,-14 -275,-21 -86,-8 -145,-13 -202,-36 -58,-23 -115,-63 -119,-47z"/>
  <path class="fil10 str0" d="M11235 11227c3,-3 18,-6 68,-9 50,-3 135,-7 192,-8 57,-2 85,-1 114,-3 29,-2 58,-7 94,-6 36,0 78,5 135,7 57,2 129,0 195,4l2 0c42,-1 83,-2 118,-3 58,-3 100,-9 135,-9 36,0 66,4 94,6 29,2 58,2 114,3 57,2 142,5 192,8 50,4 65,7 68,9 4,3 -4,5 -19,11 -14,5 -35,15 -52,23 -17,7 -31,14 -46,19 -15,6 -31,11 -49,15 -18,5 -37,8 -59,11 -21,3 -44,6 -78,9 -34,3 -78,6 -124,10 -46,4 -92,7 -134,10 -43,2 -80,4 -109,6 -28,1 -48,1 -60,3 -9,2 -13,4 -28,-1 -19,6 -23,3 -32,2 -12,-2 -33,-3 -61,-4 -29,-1 -66,-3 -108,-6 -42,-2 -89,-6 -135,-10 -45,-3 -90,-7 -124,-10 -34,-3 -57,-5 -78,-8 -21,-3 -41,-7 -59,-11 -18,-4 -34,-10 -49,-15 -15,-6 -28,-12 -46,-20 -17,-8 -38,-17 -52,-23 -14,-5 -22,-7 -19,-10z"/>
  <path class="fil11 str0" d="M9427 8148c-1,-199 -12,-430 -4,-692 8,-263 34,-557 87,-809 52,-252 131,-462 223,-643 92,-181 197,-333 344,-477 147,-145 336,-281 509,-378 173,-98 331,-155 478,-195 147,-39 283,-60 446,-76 163,-16 352,-26 509,-26 158,0 284,10 415,31 131,21 268,53 399,95 131,42 257,94 362,150 105,55 189,112 294,210 105,97 231,233 333,362 103,128 182,249 237,362 55,113 86,218 118,312 31,95 63,179 76,279 13,99 8,215 8,399 0,183 5,435 8,714 2,278 2,582 -6,845 -7,262 -23,483 -61,760 -38,277 -99,610 -215,984 -117,374 -289,789 -419,1055 -129,267 -216,385 -353,529 -136,145 -322,315 -483,432 -160,117 -294,180 -414,223 -121,43 -229,67 -373,61 -144,-7 -325,-44 -463,-74 -138,-30 -233,-54 -382,-177 -150,-123 -355,-347 -544,-612 -189,-265 -362,-572 -510,-834 -148,-263 -272,-481 -345,-676 -74,-196 -97,-369 -125,-541 -28,-172 -59,-343 -87,-450 -27,-108 -51,-153 -63,-244 -11,-92 -11,-231 -8,-384 4,-152 11,-317 9,-515z"/>
  <path class="fil12 str0" d="M16078 19236c118,19 352,68 520,107 168,39 271,70 297,130 26,60 -24,151 -100,199 -76,48 -178,53 -250,35 -71,-19 -112,-61 -218,-106 -107,-46 -279,-95 -357,-137 -78,-43 -61,-79 -48,-116 14,-37 24,-75 30,-99 6,-24 8,-33 126,-13z"/>
  <path class="fil3 str0" d="M19471 13798c-3,45 -8,133 -21,219 -13,85 -35,167 -69,261 -34,95 -81,202 -109,281 -27,79 -34,131 -55,194 -21,64 -57,140 -74,177 -18,38 -18,38 -16,38 1,1 5,1 11,2 7,1 16,3 23,4 7,1 12,2 16,3 3,0 5,1 17,-25 13,-26 36,-80 61,-132 26,-52 53,-103 77,-151 23,-49 41,-96 73,-177 32,-81 78,-196 110,-286 33,-91 52,-157 65,-211 14,-54 22,-95 26,-117 3,-21 2,-22 0,-24 -2,-1 -4,-3 -11,-9 -6,-5 -17,-14 -30,-24 -13,-10 -28,-21 -39,-29 -11,-7 -17,-12 -25,-18 -7,-6 -16,-12 -21,-16 -5,-4 -5,-4 -6,-4 0,0 0,0 -3,44z"/>
  <path class="fil5 str0" d="M18551 14886c168,13 356,48 473,67 117,19 161,21 201,35 39,13 73,36 126,108 52,73 123,193 203,381 80,188 169,442 267,714 97,272 202,561 296,765 95,205 179,326 286,488 108,163 239,368 412,522 173,154 388,257 517,318 129,61 173,80 204,99 32,19 51,37 80,94 29,57 69,153 89,273 20,120 21,264 -366,317 -387,52 -1161,13 -1529,-125 -367,-138 -328,-374 -322,-534 7,-160 -19,-244 -73,-348 -54,-104 -135,-227 -232,-367 -97,-141 -210,-298 -322,-533 -111,-235 -222,-548 -293,-718 -70,-171 -102,-200 -186,-225 -84,-25 -220,-46 -385,-97 -165,-51 -357,-133 -515,-222 -157,-89 -280,-186 -231,-295 50,-109 270,-230 438,-350 168,-121 284,-242 415,-307 131,-64 279,-73 447,-60z"/>
  <path class="fil3 str0" d="M19828 14091c-3,35 -9,104 -47,234 -38,129 -109,318 -148,428 -38,110 -45,142 -37,192 7,51 27,120 77,251 49,132 128,326 194,467 66,142 120,232 152,281 32,49 43,56 63,64 20,7 48,13 64,3 16,-9 19,-34 13,-75 -5,-41 -19,-98 -55,-184 -35,-85 -92,-200 -147,-309 -55,-109 -109,-211 -147,-290 -39,-79 -62,-134 -79,-185 -17,-51 -26,-98 -17,-131 10,-32 38,-49 65,-93 27,-44 52,-115 69,-206 18,-90 27,-201 33,-273 5,-73 7,-109 8,-127 0,-18 -1,-19 -2,-21 -2,-2 -4,-5 -9,-10 -4,-4 -11,-11 -16,-17 -6,-6 -10,-11 -15,-17 -5,-6 -10,-12 -13,-15 -3,-3 -3,-3 -3,-3 0,1 0,1 -3,36z"/>
  <path class="fil3 str0" d="M20516 15833c-65,66 -188,194 -257,270 -70,75 -85,99 -90,120 -5,21 1,40 38,141 36,101 102,283 163,442 60,158 115,292 156,397 40,106 65,183 82,233 18,51 27,75 37,92 11,17 22,28 31,31 9,3 17,-1 30,-9 13,-8 30,-19 42,-26 13,-7 21,-10 16,-36 -4,-25 -22,-72 -39,-123 -17,-51 -35,-106 -46,-144 -11,-38 -16,-59 -21,-105 -6,-46 -12,-119 -26,-179 -14,-60 -36,-107 -58,-151 -21,-44 -41,-85 -62,-124 -20,-38 -41,-74 -66,-116 -25,-42 -55,-89 -81,-134 -26,-45 -48,-87 -63,-116 -15,-28 -23,-42 -24,-57 -2,-15 3,-31 40,-71 36,-41 105,-107 156,-158 51,-51 84,-87 102,-109 18,-23 20,-31 22,-45 3,-14 5,-33 5,-51 0,-17 -2,-34 -7,-39 -6,-6 -14,0 -80,67z"/>
  <path class="fil3 str0" d="M21019 17415c-18,-6 -41,11 -75,39 -34,28 -80,65 -114,94 -35,29 -57,49 -76,64 -18,16 -31,28 -33,51 -3,23 6,58 17,88 11,30 24,55 51,101 28,47 68,114 93,151 25,38 34,44 51,56 16,11 40,28 68,45 28,18 59,37 90,55 31,18 61,35 74,36 13,1 9,-12 0,-37 -8,-25 -22,-61 -53,-111 -31,-50 -80,-113 -125,-181 -45,-68 -87,-141 -87,-190 -1,-50 40,-75 70,-94 29,-19 47,-33 60,-42 13,-10 20,-15 24,-25 5,-10 8,-24 2,-45 -6,-21 -19,-50 -37,-55z"/>
  <path class="fil11 str3" d="M9076 14250c152,84 304,168 420,253 115,86 194,172 329,256 135,84 327,166 505,245 179,78 344,154 482,242 138,88 248,188 343,265 95,76 175,129 215,156 40,27 40,27 40,27"/>
  <path class="fil11 str0" d="M14774 12495c321,-93 641,-187 961,-280"/>
  <path class="fil11 str0" d="M15021 13631c202,-94 403,-189 627,-252 224,-63 471,-95 719,-127"/>
  <path class="fil11 str0" d="M15167 14875c347,-189 694,-378 937,-510 243,-132 382,-208 521,-283"/>
  <path class="fil13 str0" d="M15380 18122c-24,7 -49,28 -69,56 -20,28 -36,64 -38,94 -1,30 12,55 29,76 16,21 36,38 55,49 19,11 37,17 58,13 21,-4 45,-17 61,-38 15,-20 23,-48 26,-78 2,-30 0,-63 -10,-91 -10,-28 -27,-52 -47,-67 -19,-15 -42,-21 -65,-14z"/>
  <path class="fil13 str0" d="M15939 18263c-24,8 -49,29 -69,57 -20,28 -36,64 -37,94 -2,30 11,55 28,76 16,21 36,38 55,49 19,11 37,16 58,13 21,-4 45,-18 61,-38 15,-20 23,-48 26,-78 3,-30 0,-63 -10,-91 -10,-28 -27,-52 -46,-67 -20,-15 -42,-22 -66,-15z"/>
  <path class="fil12 str0" d="M11994 20517c3,182 8,546 10,728 3,182 3,182 -33,182 -35,0 -106,0 -143,1 -36,0 -39,1 -38,-121 2,-122 7,-367 -18,-496 -25,-129 -80,-142 -171,-154 -90,-12 -216,-23 -350,-21 -134,1 -276,14 -421,41 -145,26 -294,66 -369,86 -74,20 -74,20 -74,20 0,0 0,0 -11,-14 -10,-15 -31,-45 -45,-63 -13,-19 -20,-25 -41,-44 -22,-18 -58,-49 -91,-75 -33,-26 -64,-47 -87,-62 -22,-16 -37,-25 -44,-30 -7,-5 -7,-5 3,-18 10,-12 29,-38 39,-51 10,-13 10,-13 17,-12 6,2 19,4 38,7 19,3 45,6 81,7 37,1 85,0 145,-4 60,-5 133,-13 222,-23 89,-10 193,-23 279,-32 86,-9 154,-15 227,-19 73,-5 150,-9 217,-12 67,-2 123,-4 196,-4 74,-1 164,-1 225,-1 62,0 95,0 122,1 28,0 51,0 68,1 17,0 28,0 35,0 6,1 8,1 9,1 0,0 0,0 0,0 0,0 0,0 3,181z"/>
  <path class="fil3 str0" d="M11244 18518c3,-11 4,-25 151,-99 147,-73 441,-205 590,-271 149,-67 154,-67 444,146 289,212 863,636 1150,848 287,212 287,212 231,206 -55,-6 -165,-18 -311,-33 -146,-15 -326,-32 -457,-42 -130,-10 -211,-13 -369,-11 -158,1 -394,7 -670,19 -275,11 -591,29 -801,40 -211,12 -316,17 -369,20 -53,3 -53,3 -32,-34 21,-36 62,-110 108,-190 46,-80 95,-168 137,-241 41,-73 74,-131 104,-184 30,-54 57,-102 73,-129 15,-28 19,-35 21,-45z"/>
  <path class="fil3 str0" d="M18312 16200c-32,-8 -78,-18 -122,-29 -45,-11 -88,-22 -125,-32 -38,-10 -68,-20 -100,-33 -32,-13 -64,-30 -103,-44 -38,-15 -83,-28 -122,-41 -39,-14 -72,-29 -108,-46 -36,-18 -76,-38 -103,-52 -27,-14 -42,-23 -50,-27 -8,-4 -8,-4 -22,3 -14,8 -42,23 -70,39 -28,15 -57,31 -83,45 -25,13 -48,26 -72,39 -25,13 -50,26 -71,38 -21,11 -38,20 -47,24 -8,5 -8,5 188,63 195,58 586,173 784,228 198,55 204,50 221,14 17,-37 46,-104 51,-140 5,-37 -13,-41 -46,-49z"/>
  <path class="fil11 str4" d="M17671 16256c156,180 311,361 394,486 83,124 93,192 62,329 -32,136 -105,341 -175,529 -69,188 -135,360 -200,531"/>
  <path class="fil11 str0" d="M17533 18309c261,-212 522,-425 782,-638"/>
  <path class="fil11 str0" d="M18086 16375c115,121 230,241 306,341 75,100 112,178 137,252 25,73 38,142 26,195 -12,54 -48,94 -83,145 -36,51 -69,114 -103,177"/>
  <path class="fil11 str0" d="M18555 17163c69,87 138,173 190,243 53,71 90,126 131,179 40,52 85,102 136,168 51,65 109,147 172,219 63,72 131,135 181,176 50,42 81,61 113,80"/>
  <path class="fil11 str0" d="M14545 18987c39,-496 78,-991 101,-1564 22,-573 27,-1224 9,-1852 -19,-627 -61,-1231 -142,-1650 -81,-419 -201,-654 -262,-768 -61,-114 -64,-108 -66,-101"/>
  <path class="fil11 str3" d="M14577 14352c-492,322 -984,644 -1476,967"/>
  <path class="fil11 str5" d="M9105 12702c73,82 146,165 290,279 144,115 359,262 629,401 271,139 596,271 916,362 321,92 636,145 885,161 249,15 433,-6 551,-27 118,-21 171,-42 235,-72 65,-31 142,-72 218,-112"/>
  <path class="fil11 str0" d="M14889 18696c-102,-61 -205,-122 -250,-233 -46,-111 -35,-272 -21,-589 13,-316 30,-789 51,-1280 21,-491 45,-1001 3,-1515 -42,-514 -151,-1033 -233,-1355 -81,-322 -135,-446 -161,-509 -27,-62 -27,-62 -38,-79 -11,-17 -33,-51 -55,-84"/>
  <path class="fil11 str0" d="M11113 12127c113,-11 226,-21 324,-26 99,-5 183,-5 272,-5 89,0 184,0 274,6 91,7 177,20 269,41 92,21 189,50 251,71 61,21 88,35 114,48"/>
  <path class="fil11 str0" d="M17782 18647c-14,-19 -28,-38 -45,-61 -16,-22 -36,-48 -52,-71 -17,-22 -31,-42 -43,-58 -12,-17 -22,-30 -32,-44"/>
  <path class="fil4 str0" d="M17605 18424c-9,16 -23,43 -34,73 -10,30 -17,63 -25,111 -7,49 -17,113 -22,168 -6,55 -7,100 -8,122 -1,23 -1,23 12,17 12,-6 37,-18 59,-28 21,-9 38,-17 53,-23 14,-5 26,-8 42,-13 16,-5 37,-13 52,-19 16,-6 26,-10 30,-14 5,-4 3,-7 4,-17 0,-10 1,-28 4,-43 3,-15 7,-29 13,-41 7,-12 16,-22 26,-32 10,-11 22,-22 21,-37 0,-14 -13,-33 -26,-56 -13,-23 -27,-49 -43,-72 -16,-23 -34,-43 -49,-58 -16,-16 -28,-28 -39,-42 -10,-13 -19,-29 -23,-37 -5,-8 -5,-9 -10,-6 -4,4 -13,12 -19,19 -6,6 -10,12 -18,28z"/>
  <path class="fil7 str0" d="M17584 18376c49,68 148,203 201,274 53,70 60,77 68,82 8,4 16,7 24,7 9,0 17,-3 31,-12 15,-9 37,-25 61,-42 24,-17 50,-36 77,-57 26,-22 53,-47 97,-86 45,-38 108,-90 173,-144 65,-53 131,-108 185,-151 53,-44 93,-77 117,-97 25,-20 33,-26 42,-31 8,-6 16,-9 20,-11 4,-2 4,-3 -41,-54 -44,-51 -133,-153 -189,-217 -56,-64 -79,-90 -96,-111 -17,-22 -28,-38 -33,-46 -6,-9 -6,-9 -42,21 -37,30 -110,90 -196,160 -87,71 -186,152 -268,219 -83,67 -148,120 -187,153 -38,33 -51,46 -61,55 -11,9 -19,13 -24,15 -4,2 -6,3 -7,3 -1,1 -2,2 48,70z"/>
  <path class="fil11 str0" d="M15237 16475c189,-131 378,-263 556,-373 179,-110 347,-199 496,-289 150,-89 281,-178 446,-280 166,-103 365,-218 528,-323 163,-105 289,-200 386,-273 97,-74 165,-126 234,-179"/>
  <path class="fil11 str0" d="M15737 15661c69,47 230,147 379,241 150,95 289,184 360,222 70,37 72,23 80,-27 8,-50 22,-135 31,-181 9,-45 15,-50 101,-40 87,11 255,37 339,48 84,10 84,5 65,-90 -18,-94 -55,-278 -87,-425 -31,-147 -57,-257 -83,-346 -26,-90 -53,-158 -63,-187 -11,-29 -5,-18 -23,98 -18,116 -59,337 -99,500 -39,163 -77,267 -93,319 -16,52 -11,52 -163,15 -152,-37 -461,-110 -626,-150 -166,-39 -187,-44 -118,3z"/>
  <path class="fil11 str0" d="M15753 15635c132,-138 264,-275 428,-403 164,-127 361,-245 479,-303 119,-58 159,-55 199,-53"/>
  <path class="fil11 str0" d="M17612 15947c113,-115 226,-231 354,-365 129,-134 273,-286 385,-403 112,-117 190,-198 269,-279"/>
  <path class="fil11 str0" d="M18442 16194c118,-108 236,-215 357,-348 121,-133 244,-290 337,-410 93,-119 156,-200 219,-282"/>
  <path class="fil12 str0" d="M18554 17956c26,30 56,64 79,91 24,27 43,48 57,70 14,22 24,45 33,63 10,18 19,31 30,41 11,9 25,14 45,15 19,0 45,-5 68,-12 22,-7 40,-16 56,-26 16,-10 30,-21 43,-36 14,-15 28,-34 37,-52 9,-19 12,-37 10,-59 -2,-23 -11,-49 -26,-80 -15,-31 -37,-67 -60,-103 -23,-36 -48,-71 -80,-114 -33,-43 -72,-94 -113,-146 -41,-52 -83,-104 -116,-139 -33,-35 -57,-52 -80,-59 -24,-7 -47,-4 -70,6 -23,10 -47,27 -69,45 -23,17 -45,36 -60,52 -16,16 -25,29 -31,45 -6,16 -8,36 -5,57 3,21 11,43 22,63 10,21 24,41 52,73 27,33 68,78 99,114 32,35 54,61 79,91z"/>
  <path class="fil6 str0" d="M11118 12127c3,-1 11,-2 53,-5 42,-4 117,-10 212,-15 95,-5 211,-8 314,-8 103,-1 195,1 296,12 102,10 213,29 310,52 96,22 177,47 227,64 49,18 68,26 60,44 -8,18 -43,46 -96,80 -53,33 -124,74 -199,106 -75,32 -154,55 -220,68 -66,13 -120,15 -182,11 -62,-4 -131,-16 -170,-22 -40,-7 -50,-10 -77,-18 -28,-8 -72,-22 -120,-43 -48,-21 -98,-48 -144,-79 -47,-32 -89,-68 -132,-109 -44,-41 -88,-87 -111,-111 -23,-24 -24,-26 -21,-27z"/>
  <path class="fil6 str0" d="M18435 17590c-2,28 13,58 41,100 28,43 70,98 108,151 38,53 72,105 103,144 31,39 59,67 89,81 31,14 65,14 90,2 24,-11 38,-33 39,-56 1,-23 -12,-47 -35,-77 -22,-31 -54,-69 -84,-112 -30,-43 -59,-90 -90,-136 -30,-46 -63,-90 -101,-119 -37,-29 -79,-42 -109,-36 -30,5 -49,30 -51,58z"/>
  <path class="fil12 str0" d="M11995 20655c1,181 3,479 3,629 1,149 1,149 37,149 35,0 106,0 143,1 37,1 39,1 38,-121 -1,-122 -7,-367 18,-496 25,-129 80,-142 171,-154 91,-12 217,-22 350,-21 134,1 276,14 421,41 146,27 294,67 369,87 74,20 1186,343 1186,343 0,0 -5,-18 13,-16 596,43 407,265 -241,-788l0 0c-43,37 -84,69 -120,95 -165,122 -207,112 -316,99 -109,-14 -285,-29 -546,-57l-12 -1 -13 -1 -12 -2 -13 -1 -13 -2 -13 -1 -13 -1 -13 -2 -13 -1 0 0 -14 -2 -13 -1 0 0 -14 -1 -14 -2 0 0 -13 -1 -14 -2 0 0 -15 -1 0 0 -14 -2 0 0 -14 -1 0 0 -15 -2 0 0 -14 -1 0 0 -15 -2 -15 -1 -15 -2 0 0 -15 -1 0 0 -15 -2 0 0 -15 -1 -16 -2 -15 -1 -16 -2 -16 -2 0 0 -15 -1 -16 -2 -17 -1 -16 -2 -16 -1 -16 -2 -17 -1 0 0 -17 -2 -16 -1 -17 -2 0 0 -17 -1 -17 -2 0 0 -17 -1 0 0 -18 -1 -17 -2 -18 -1 -17 -2 0 0 -18 -1 -18 -2 -18 -1 -18 -1 -18 -2 -18 -1 0 0 -18 -1 0 0 -19 -2 -18 -1 -19 -1 -19 -1 -18 -2 -19 -1 -19 -1 -20 -1 -19 -1 -19 -1 -19 -1 -1 0 -2 -1 -16 -1 -1 0 -20 -1 -2 0 -16 -1 -1 0 -1 0 -19 -1 -2 0 -16 -1 -2 0 -20 -1 -1 0 -17 0 -2 -1 0 0 -20 0 0 0 0 0 -17 -1 -3 0 -3 0 -11 -1 -6 0 0 0 0 0 -17 -1 -3 0 -3 0 -5 0 -6 -1 -6 0 -1 0 -5 0 -5 0 -6 0 -4 -1 -2 0 -5 0 -12 0 -1 0 -5 0 -5 -1 -6 0 -1 0 -5 0 -6 0 -5 0 -6 -1 -2 0 -4 0 -15 0 -2 0 0 0 -12 0c-28,0 -51,1 -71,0 -21,-1 -39,-2 -50,-3 -10,-1 -13,-1 -14,1 -1,2 -1,7 0,41 0,34 1,96 3,276z"/>
  <path class="fil14 str0" d="M10847 19341c111,-4 291,-16 623,-36 332,-19 815,-45 1147,-48 332,-3 513,18 815,50 302,31 724,72 1027,152 302,79 485,196 431,382 -53,186 -341,441 -507,563 -165,122 -207,112 -316,99 -109,-14 -285,-29 -546,-57 -261,-27 -608,-67 -1021,-90 -414,-24 -894,-32 -1256,-15 -362,17 -606,59 -776,78 -170,19 -265,15 -368,-11 -102,-26 -212,-75 -250,-201 -39,-127 -8,-332 58,-474 65,-141 165,-220 295,-275 130,-55 290,-87 391,-101 101,-14 142,-11 253,-16z"/>
  <path class="fil15 str0" d="M24964 21339c-69,-90 -205,-271 -433,-532 -229,-261 -549,-602 -1001,-964 -451,-362 -1034,-745 -1538,-1000 -504,-255 -929,-381 -1394,-441 -464,-60 -968,-55 -1480,24 -512,78 -1032,231 -1557,475 -525,244 -1055,580 -1480,903 -425,323 -746,632 -990,897 -244,264 -412,484 -501,594 -89,110 -99,110 1615,114 1714,4 5152,12 6908,16 1756,4 1830,4 1870,4 39,0 43,0 46,0 2,0 2,0 2,0 1,0 1,0 -67,-90z"/>
  <path class="fil7 str0" d="M15011 19210c-112,7 -135,7 -177,4 -42,-2 -103,-7 -145,-13 -42,-7 -64,-14 -81,3 -16,17 -27,58 -38,162 -10,103 -20,269 -34,474 -15,205 -34,449 -39,580 -5,131 5,148 83,224 79,77 227,214 435,307 207,94 474,146 729,-94 255,-240 499,-770 613,-1035 115,-265 99,-265 -62,-329 -160,-64 -465,-192 -718,-248 -253,-57 -455,-42 -566,-35z"/>
  <path class="fil0 str0" d="M10390 20787c1,-5 5,-6 44,-16 38,-10 112,-29 176,-45 64,-16 118,-28 179,-39 61,-12 128,-23 195,-31 68,-8 137,-13 203,-16 67,-3 130,-2 193,0 63,3 126,8 174,13 47,5 81,11 106,18 26,8 43,17 56,28 13,11 23,24 33,49 9,24 19,59 25,103 7,43 11,95 14,149 2,54 3,110 3,169 0,59 0,121 -1,165 0,44 0,68 0,81 0,12 0,12 -64,13 -64,0 -193,0 -333,1 -141,0 -294,0 -418,0 -124,1 -219,1 -311,1 -92,0 -180,0 -260,-1 -80,0 -152,-1 -192,-1 -40,1 -47,3 -46,1 1,-2 11,-8 17,-12 5,-4 7,-7 12,-21 6,-14 17,-39 29,-72 12,-33 27,-74 42,-118 15,-43 30,-88 47,-137 17,-49 35,-103 48,-142 14,-38 22,-62 27,-77 4,-14 6,-19 6,-25 1,-6 0,-12 -1,-19 -1,-7 -4,-15 -3,-19z"/>
  <path class="fil0 str0" d="M14394 21402c-406,7 -1296,15 -1741,19 -445,5 -445,5 -443,-21 1,-27 3,-79 5,-157 2,-78 3,-182 8,-265 5,-84 15,-146 26,-189 11,-42 24,-64 51,-82 26,-17 65,-31 131,-41 66,-10 159,-17 243,-19 84,-3 159,-1 242,6 82,7 171,18 251,32 80,13 152,29 256,56 104,26 242,64 367,100 124,35 236,67 336,96 100,29 187,54 279,81 92,27 189,55 244,71 55,16 69,20 75,22 7,2 7,2 -6,19 -14,17 -42,51 -70,87 -29,36 -59,74 -74,97 -16,23 -17,32 -12,40 6,8 19,16 35,21 15,5 32,8 79,12 47,4 125,8 -282,15z"/>
  <path class="fil16 str0" d="M13668 11488c2,54 3,161 -16,276 -19,115 -60,238 -140,440 -79,201 -197,481 -338,783 -140,303 -303,628 -469,951 -167,323 -338,643 -508,941 -171,298 -342,574 -706,1211 -365,638 -924,1638 -1301,2298 -376,660 -569,980 -726,1190 -158,210 -280,310 -330,381 -50,71 -29,113 26,188 55,75 145,183 263,271 118,88 265,156 358,189 93,32 132,30 166,9 34,-21 63,-61 122,-137 59,-76 149,-189 302,-437 154,-248 371,-631 572,-985 201,-355 385,-680 604,-1071 219,-391 474,-848 735,-1289 261,-441 529,-866 819,-1378 290,-512 602,-1111 845,-1672 243,-562 416,-1087 504,-1385 87,-299 89,-371 90,-407 0,-37 -1,-38 -5,-40 -4,-2 -12,-4 -29,-10 -18,-7 -46,-16 -85,-31 -39,-15 -90,-36 -153,-63 -64,-27 -141,-62 -196,-86 -54,-25 -86,-40 -125,-58 -40,-19 -88,-41 -123,-57 -35,-16 -56,-27 -74,-35 -17,-8 -29,-14 -43,-20 -13,-7 -27,-14 -33,-18 -7,-3 -7,-2 -6,51z"/>
  <path class="fil11 str6" d="M10239 13136c46,44 92,88 180,146 88,59 219,133 380,200 162,66 355,126 543,163 188,37 372,52 515,49 144,-3 249,-24 315,-42 67,-18 96,-32 132,-53 35,-21 77,-48 119,-75"/>
  <path class="fil11 str6" d="M11158 13003c18,17 35,33 69,56 33,22 83,50 145,76 62,25 135,48 207,62 71,14 141,20 196,19 55,-2 95,-9 120,-16 25,-7 36,-13 50,-20 14,-8 30,-19 46,-29"/>
  <path class="fil11 str6" d="M10792 13051c21,28 42,56 85,97 43,40 107,93 190,144 82,52 182,102 282,140 99,38 198,63 277,75 79,11 139,10 177,6 38,-3 55,-9 77,-17 21,-8 47,-19 72,-30"/>
  <path class="fil3 str0" d="M2016 20622c17,-39 42,-58 65,-81 24,-23 45,-50 64,-83 19,-34 36,-73 46,-100 11,-27 16,-41 18,-48 2,-7 2,-7 3,-11 1,-4 3,-11 5,-15 1,-4 1,-5 3,-2 2,3 7,10 13,19 7,9 16,20 32,34 16,15 38,33 66,46 28,13 61,19 117,12 56,-8 135,-29 228,-61 92,-31 199,-73 336,-123 138,-51 308,-110 420,-187 113,-77 169,-172 331,-551 161,-380 428,-1045 641,-1624 214,-578 373,-1069 592,-1346 218,-278 495,-341 695,-347 200,-6 322,44 401,148 78,104 114,261 160,517 45,255 102,608 -33,1096 -136,488 -464,1111 -1188,1694 -725,582 -1846,1125 -2435,1342 -589,218 -645,111 -659,27 -14,-83 15,-142 34,-200 19,-59 28,-118 45,-156z"/>
  <path class="fil5 str0" d="M5040 21378c42,-53 126,-159 241,-285 116,-127 263,-274 363,-436 99,-163 152,-342 199,-452 47,-110 89,-152 126,-199 37,-48 68,-100 163,-210 94,-111 252,-279 320,-357 55,-64 83,-90 57,-104 -223,-118 -699,-378 -947,-520 -247,-141 -400,-210 -492,-233 -91,-24 -123,-3 -165,42 -42,44 -94,113 -176,231 -81,118 -191,286 -283,428 -92,141 -166,257 -244,380 -79,124 -163,255 -216,342 -52,86 -73,128 -99,165 -27,37 -58,68 -132,97 -73,29 -189,55 -325,89 -137,34 -294,76 -470,116 -176,39 -370,76 -525,90 -116,10 -209,8 -423,21 -28,17 -59,32 -94,46 -111,45 -258,82 -376,168 -118,87 -207,223 -244,337 -37,114 -21,205 -13,251 8,45 8,45 58,45 50,0 149,0 483,0 333,0 900,0 1467,0 568,0 1135,0 1419,0 284,0 285,1 286,1 0,0 0,-1 42,-53z"/>
  <path class="fil6 str0" d="M3641 21430c441,0 845,0 1071,0 284,0 285,1 286,1 0,0 0,0 18,-23 10,-14 17,-23 22,-30 7,-9 10,-15 14,-20 4,-5 10,-10 20,-22 10,-11 24,-29 8,-52 -16,-23 -62,-52 -115,-65 -54,-13 -114,-9 -167,-20 -54,-12 -101,-40 -172,-85 -71,-45 -165,-108 -263,-189 -98,-80 -200,-177 -262,-239 -63,-62 -86,-89 -108,-103 -22,-14 -41,-15 -82,-11 -40,4 -101,13 -185,50 -84,36 -192,100 -283,169 -91,70 -165,144 -204,182 -38,37 -40,37 -42,40 -2,2 -3,7 3,15 5,9 18,21 30,29 12,8 24,12 60,41 35,28 95,82 149,130 54,48 101,90 133,121 28,27 45,46 69,81z"/>
  <path class="fil12 str0" d="M2882 20804c35,36 99,99 145,151 46,52 75,92 99,117 24,25 44,35 55,40 11,5 14,5 20,4 6,0 15,-1 21,-6 7,-4 11,-12 12,-23 1,-11 -1,-26 -13,-48 -11,-22 -32,-50 -73,-93 -41,-43 -103,-100 -143,-136 -39,-37 -56,-52 -70,-63 -14,-10 -26,-15 -37,-17 -10,-1 -19,1 -29,4 -9,4 -20,9 -23,16 -3,8 2,17 36,54z"/>
  <path class="fil12 str0" d="M3717 20424c23,0 64,-11 90,-15 27,-5 40,-3 52,2 11,4 22,11 34,21 11,10 23,22 29,42 7,20 7,46 8,68 1,22 2,38 7,50 5,11 14,17 24,21 10,4 21,6 29,6 8,1 14,0 19,-2 5,-2 9,-5 14,-15 5,-11 11,-29 13,-50 3,-22 2,-47 -7,-78 -9,-31 -26,-68 -50,-90 -24,-23 -55,-32 -99,-34 -44,-3 -100,1 -135,6 -35,6 -49,13 -56,21 -8,8 -9,18 -6,28 3,10 10,20 34,19z"/>
  <path class="fil3 str0" d="M3908 14287c13,54 38,162 84,282 46,121 112,255 166,367 53,111 94,201 139,279 46,77 95,143 121,171 26,28 30,18 38,11 7,-8 19,-15 25,-18 6,-3 6,-3 -24,-60 -30,-57 -90,-172 -158,-304 -69,-133 -146,-284 -204,-427 -58,-143 -96,-278 -116,-345 -19,-67 -20,-67 -21,-66 -1,0 -3,1 -6,4 -3,2 -6,6 -12,12 -7,6 -16,15 -24,21 -7,6 -12,10 -15,13 -3,3 -5,4 -5,5 -1,1 -1,1 12,55z"/>
  <path class="fil3 str0" d="M4037 14155c9,36 29,106 49,171 20,66 40,127 77,216 38,88 94,204 135,284 40,80 65,124 97,178 31,55 68,119 102,176 34,56 64,104 81,128 17,24 19,25 22,24 4,-1 10,-2 17,-6 7,-3 16,-9 23,-13 6,-4 11,-5 -37,-95 -47,-90 -146,-268 -209,-391 -63,-124 -90,-192 -119,-261 -29,-69 -59,-138 -87,-213 -28,-76 -54,-157 -66,-206 -13,-50 -13,-69 -14,-77 -1,-9 -3,-8 -5,-6 -3,2 -6,4 -11,7 -5,3 -12,8 -22,15 -11,8 -23,19 -31,25 -8,7 -11,9 -2,44z"/>
  <path class="fil11 str0" d="M3785 17028c486,-155 973,-310 1459,-465"/>
  <path class="fil11 str0" d="M5633 16400c-331,-362 -662,-725 -993,-1087"/>
  <path class="fil11 str0" d="M3656 19863c-320,-295 -640,-591 -960,-886"/>
  <path class="fil11 str0" d="M4229 20809c147,-72 295,-144 447,-261 153,-117 310,-280 436,-445 126,-166 221,-334 346,-518 125,-184 281,-385 436,-585"/>
  <path class="fil11 str0" d="M4980 18574c149,-258 298,-516 392,-691 93,-175 130,-266 176,-398 47,-132 102,-305 136,-436 34,-132 47,-221 50,-307 2,-87 -5,-171 -12,-232 -6,-60 -10,-97 -15,-134"/>
  <path class="fil4 str0" d="M4252 20828c22,19 66,58 110,94 44,36 86,69 144,109 58,39 130,86 195,117 65,31 123,46 176,59 53,13 102,24 135,37 33,13 51,26 60,38 10,11 13,20 42,-7 29,-27 86,-91 142,-153 56,-62 111,-122 159,-176 49,-54 90,-103 131,-157 41,-54 82,-114 110,-161 29,-46 46,-80 70,-136 24,-56 56,-135 82,-197 26,-62 45,-107 103,-194 58,-86 155,-213 244,-322 88,-108 170,-198 228,-269 57,-71 92,-123 105,-151 14,-27 7,-31 -29,-51 -37,-20 -103,-56 -202,-110 -99,-54 -231,-126 -297,-162 -66,-36 -66,-36 -93,-1 -27,35 -80,103 -138,181 -59,77 -123,164 -195,266 -72,103 -151,222 -204,297 -52,75 -77,107 -110,155 -33,48 -74,113 -142,198 -68,85 -164,190 -230,258 -66,69 -102,100 -166,146 -64,47 -157,108 -229,152 -72,44 -122,70 -152,85 -30,15 -39,20 -48,24 -8,4 -15,7 -19,9 -4,2 -4,2 18,22z"/>
  <path class="fil5 str0" d="M23654 21428c0,-2 -6,-7 -124,-100 -118,-93 -349,-274 -592,-428 -244,-153 -501,-279 -759,-387 -257,-107 -514,-197 -798,-260 -283,-63 -593,-99 -882,-105 -288,-5 -556,21 -874,100 -317,79 -685,210 -1010,365 -326,155 -609,333 -809,474 -199,140 -315,241 -375,292 -61,51 -66,51 942,51 1008,0 3029,0 4077,0 1047,0 1121,0 1160,0 39,0 45,0 44,-2z"/>
  <path class="fil4 str0" d="M7742 12565c-124,357 -373,1068 -506,1729 -132,660 -148,1269 -117,1839 32,569 111,1099 245,1621 135,521 326,1032 460,1062 135,30 213,-423 399,-512 186,-90 480,183 646,250 166,66 204,-73 219,-156 16,-82 8,-106 -38,-426 -46,-320 -130,-934 -190,-1498 -61,-564 -97,-1079 -105,-1481 -8,-401 13,-690 71,-1010 57,-320 152,-672 212,-948 61,-275 87,-475 138,-665 51,-190 128,-371 166,-462 38,-90 38,-90 37,-90 -1,0 -2,0 -15,1 -13,2 -37,5 -75,10 -37,5 -89,11 -152,20 -62,8 -137,19 -206,30 -69,11 -133,22 -191,34 -58,11 -110,23 -169,39 -60,15 -126,34 -193,56 -66,22 -133,46 -190,67 -57,22 -104,41 -155,63 -52,21 -107,45 -135,57 -29,12 -30,13 -31,13 0,1 0,1 -125,357z"/>
  <path class="fil5 str0" d="M5172 15025c130,-76 379,-202 625,-307 245,-105 486,-189 640,-251 154,-62 219,-101 266,-112 48,-10 77,8 225,96 148,88 416,246 734,432 317,186 685,402 895,524 210,122 262,151 290,195 27,45 30,105 42,229 12,123 33,309 54,527 21,218 42,467 64,634 22,167 46,251 56,305 11,53 8,77 -1,95 -9,19 -25,32 -91,4 -65,-27 -181,-96 -441,-250 -259,-155 -664,-397 -1044,-609 -381,-213 -738,-397 -1052,-569 -313,-172 -584,-332 -812,-466 -228,-133 -415,-241 -503,-308 -88,-67 -77,-93 53,-169z"/>
  <path class="fil0 str0" d="M7987 18201c207,-54 601,-159 817,-186 215,-28 252,23 307,235 54,212 126,586 168,797 42,211 54,259 24,311 -31,53 -105,112 -250,133 -145,21 -360,5 -512,37 -152,31 -242,110 -308,162 -66,51 -108,76 -158,-82 -50,-157 -107,-497 -165,-752 -57,-255 -115,-425 -133,-512 -18,-87 3,-89 210,-143z"/>
  <path class="fil13 str0" d="M8056 18778c16,16 42,37 71,49 29,12 61,15 100,16 39,1 87,1 113,-24 26,-25 31,-74 19,-132 -11,-58 -40,-124 -68,-166 -27,-42 -54,-60 -92,-82 -38,-23 -88,-49 -124,-53 -37,-4 -61,15 -82,44 -21,28 -39,68 -45,97 -5,30 2,50 14,72 11,22 27,48 39,71 12,24 19,45 26,62 6,17 13,29 29,46z"/>
  <path class="fil13 str0" d="M8634 18563c14,26 30,50 49,67 19,17 41,28 71,35 29,7 66,11 101,8 35,-4 68,-14 83,-25 15,-11 12,-23 14,-46 2,-23 9,-57 1,-91 -8,-33 -30,-66 -51,-105 -21,-40 -41,-86 -64,-117 -23,-30 -49,-46 -83,-44 -33,3 -74,24 -97,49 -23,25 -28,54 -35,85 -8,32 -17,66 -15,97 1,32 13,61 26,87z"/>
  <path class="fil11 str0" d="M7264 14160c191,130 382,260 547,367 165,108 304,193 385,243 81,50 103,64 150,-23 46,-87 117,-276 181,-455 65,-178 122,-346 210,-572 88,-225 206,-508 265,-650 59,-142 59,-143 59,-144"/>
  <path class="fil11 str0" d="M7483 14309c343,7 687,15 859,19 171,4 171,4 171,4 0,0 0,0 0,0"/>
  <path class="fil11 str0" d="M7545 13148c379,240 757,480 1136,720"/>
  <path class="fil11 str0" d="M7867 12210c402,217 805,435 1207,652"/>
  <path class="fil11 str0" d="M8860 16474c-375,-207 -750,-414 -938,-520 -187,-106 -187,-112 -153,-138 34,-26 102,-73 136,-97 34,-24 34,-24 183,62 149,86 447,258 745,430"/>
  <path class="fil11 str0" d="M5836 14701c4,-2 9,-4 11,-5 2,-1 2,-1 184,120 182,121 545,362 727,483 181,121 181,121 140,182 -42,61 -125,183 -167,244 -41,61 -41,61 71,122 111,62 335,186 447,247 112,62 112,62 254,-45 142,-107 427,-321 570,-428 142,-107 142,-107 -44,-221 -187,-114 -559,-342 -858,-516 -298,-174 -522,-293 -747,-412"/>
  <path class="fil11 str3" d="M9076 14250c-149,-81 -297,-163 -446,-244"/>
  <path class="fil12 str0" d="M7536 14389c27,-26 12,-37 0,-45 -11,-8 -19,-14 -24,-17 -6,-4 -9,-6 -12,-12 -2,-7 -3,-18 -57,18 -53,36 -160,119 -188,178 -28,59 22,94 88,135 65,41 146,87 240,136 93,49 199,99 329,145 130,46 285,87 401,103 117,16 195,7 256,-9 62,-15 106,-38 125,-86 20,-48 14,-121 11,-199 -4,-78 -5,-160 -10,-221 -5,-62 -14,-103 -43,-135 -29,-33 -78,-56 -105,-62 -26,-7 -30,3 -36,19 -5,15 -13,36 -19,53 -6,17 -11,30 -17,47 -5,16 -10,34 -9,69 1,36 8,87 14,136 6,48 10,92 12,132 2,40 1,74 -35,82 -36,8 -107,-11 -185,-31 -77,-21 -160,-43 -245,-73 -86,-30 -173,-67 -258,-100 -84,-32 -165,-60 -231,-85 -66,-25 -117,-46 -108,-78 9,-32 79,-74 106,-100z"/>
  <path class="fil11 str0" d="M7301 14003c337,16 675,31 844,39 168,8 168,8 29,-105 -140,-113 -420,-338 -700,-564"/>
  <path class="fil6 str0" d="M7176 20904c35,-129 131,-335 232,-601 102,-267 209,-594 299,-821 90,-226 163,-352 199,-416 36,-64 35,-67 43,-29 7,38 23,117 41,204 18,86 39,180 57,252 18,73 34,124 47,157 13,34 23,49 46,53 23,4 58,-5 100,-26 41,-21 89,-55 140,-82 51,-27 106,-47 176,-61 70,-14 155,-21 219,-25 64,-5 106,-6 149,-9 43,-2 86,-6 131,-14 45,-8 91,-22 114,-28 24,-7 24,-7 42,-22 18,-16 55,-47 78,-33 23,13 32,71 42,129 11,58 21,115 17,155 -5,40 -25,63 -55,96 -30,33 -71,76 -102,112 -31,37 -53,66 -74,77 -21,12 -41,5 -83,-2 -42,-7 -106,-13 -152,-2 -46,11 -74,40 -105,74 -30,34 -62,73 -120,143 -58,71 -142,173 -247,301 -104,127 -230,280 -321,392 -90,111 -147,181 -195,240 -48,60 -88,110 -123,160 -35,49 -65,99 -110,124 -44,24 -104,23 -159,22 -54,-1 -104,-3 -142,-7 -37,-5 -63,-12 -80,-37 -18,-26 -28,-70 -41,-113 -13,-43 -30,-85 -51,-133 -22,-47 -48,-101 -12,-230z"/>
  <path class="fil12 str0" d="M5057 18518c-4,12 -2,36 2,59 5,22 14,43 33,59 19,17 50,31 73,40 23,9 39,14 57,20 17,6 37,13 66,-10 29,-22 68,-73 118,-150 51,-77 114,-181 166,-272 51,-92 92,-172 113,-217 22,-46 25,-58 19,-75 -7,-16 -23,-38 -59,-65 -35,-27 -92,-60 -131,-81 -39,-21 -62,-31 -87,-27 -24,5 -51,24 -56,44 -5,20 12,42 40,57 27,15 66,24 92,34 27,10 42,21 56,32 14,11 28,23 35,37 8,14 9,29 -1,51 -9,23 -29,51 -59,101 -31,51 -72,122 -111,188 -39,66 -75,126 -95,165 -21,38 -25,55 -33,68 -8,12 -21,21 -44,27 -23,5 -56,7 -87,-10 -31,-16 -58,-52 -77,-69 -18,-18 -27,-18 -30,-6z"/>
  <path class="fil6 str0" d="M5193 18552c11,-48 51,-137 103,-237 51,-100 113,-210 149,-275 37,-65 47,-86 58,-94 10,-8 20,-3 32,5 13,8 28,20 38,29 11,9 16,16 20,24 3,7 5,16 5,25 0,8 -2,17 -8,30 -6,12 -16,29 -29,52 -14,23 -31,51 -45,75 -15,24 -26,44 -37,61 -10,18 -19,33 -28,49 -9,15 -19,31 -31,53 -13,22 -29,49 -42,70 -13,22 -22,38 -30,52 -8,13 -14,25 -20,37 -6,11 -11,22 -17,34 -5,11 -11,22 -16,31 -6,9 -13,15 -26,21 -13,6 -33,12 -52,12 -19,0 -36,-6 -24,-54z"/>
  <path class="fil11 str0" d="M6503 19386c-70,-288 -141,-575 -188,-802 -47,-228 -71,-395 -99,-626 -29,-230 -62,-523 -96,-817"/>
  <path class="fil6 str7" d="M5499 18783c198,109 593,325 791,433 198,108 198,108 198,106 -1,-1 -1,-3 -35,-151 -33,-147 -100,-440 -134,-592 -34,-152 -37,-164 -38,-170 -1,-6 -2,-6 -104,-60 -102,-54 -305,-161 -407,-215 -102,-53 -102,-53 -102,-52 -1,2 -2,4 -26,49 -25,44 -72,131 -114,204 -42,74 -78,135 -111,185 -33,50 -62,89 -81,113 -18,24 -26,32 -30,36 -5,5 -5,5 -5,5 0,1 0,1 198,109z"/>
  <path class="fil11 str0" d="M7762 15855c-298,-160 -596,-321 -745,-401 -149,-80 -149,-80 -149,-80 0,0 0,0 0,0"/>
  <path class="fil11 str0" d="M7955 15710c-613,-374 -1226,-747 -1839,-1121"/>
  <path class="fil11 str0" d="M7824 18816c-143,-53 -285,-106 -391,-277 -105,-171 -173,-460 -215,-823 -42,-363 -58,-799 -73,-1236"/>
  <path class="fil11 str0" d="M6120 17141c-23,-47 -46,-95 -90,-138 -44,-44 -110,-83 -164,-107 -55,-24 -98,-33 -142,-42"/>
  <path class="fil5 str0" d="M2672 19007c-38,49 -76,104 -107,165 -86,163 -128,373 -172,538 -45,166 -92,287 -129,407 -15,49 -28,98 -42,144 82,121 157,134 233,133 88,-1 177,-22 345,-83 168,-60 415,-160 572,-223 158,-63 226,-89 260,-155 34,-65 34,-170 76,-246 42,-77 126,-124 189,-174 63,-50 105,-102 163,-176 58,-73 131,-168 244,-357 113,-189 265,-472 373,-698 108,-226 171,-394 247,-562 76,-168 165,-336 215,-490 50,-155 60,-297 68,-413 8,-115 13,-204 37,-254 24,-50 66,-61 232,-113 167,-53 458,-147 664,-221 205,-73 325,-126 422,-184 97,-58 172,-120 128,-259 -44,-139 -207,-354 -340,-486 -132,-131 -235,-178 -442,-198 -208,-20 -522,-13 -691,2 -169,14 -195,36 -294,83 -99,48 -272,121 -369,161 -97,40 -118,47 -113,75 5,28 37,78 50,142 13,65 8,143 -16,191 -24,47 -66,63 -137,161 -70,99 -170,280 -248,433 -77,154 -132,280 -246,542 -115,263 -288,662 -461,1042 -173,380 -347,741 -473,916 -111,154 -187,164 -238,157z"/>
  <path class="fil3 str0" d="M7152 16585c-2,28 3,160 10,315 8,154 17,329 27,469 10,140 19,243 33,353 13,109 31,224 51,326 20,102 44,192 61,258 17,66 28,109 46,149 19,39 45,75 72,109 28,35 57,67 82,92 25,25 47,41 76,59 29,18 65,37 97,52 31,14 59,24 74,31 16,6 20,9 13,2 -7,-7 -25,-23 -40,-39 -15,-17 -27,-33 -44,-61 -17,-28 -39,-69 -61,-113 -22,-45 -43,-94 -69,-160 -26,-66 -57,-151 -84,-232 -28,-82 -52,-161 -70,-222 -18,-61 -30,-103 -45,-159 -15,-57 -33,-128 -46,-179 -12,-50 -19,-81 -31,-136 -12,-55 -29,-135 -45,-218 -16,-84 -31,-171 -43,-243 -12,-72 -20,-129 -27,-180 -7,-52 -13,-99 -20,-161 -8,-62 -16,-140 -17,-112z"/>
  <path class="fil3 str0" d="M9704 10191c35,4 107,12 142,16 36,4 36,4 36,6 0,1 1,4 2,7 0,4 1,8 3,15 1,7 4,17 9,40 6,23 15,59 25,94 10,36 21,70 30,99 10,29 18,53 28,78 9,25 20,50 28,74 9,23 16,44 33,78 17,34 43,79 64,115 21,37 36,63 51,92 16,29 31,61 67,114 36,53 93,128 146,198 54,71 104,137 146,191 43,55 77,99 134,168 56,70 135,164 198,240 63,76 111,132 174,202 62,70 139,154 193,209 53,55 85,81 108,101 24,19 40,30 65,47 26,16 62,37 90,53 29,16 50,27 72,37 22,9 45,17 69,24 24,7 50,14 76,19 26,5 52,9 76,13 24,4 46,8 63,9 17,2 29,2 42,3 14,1 29,3 46,4 16,0 33,1 55,-1 21,-1 48,-3 67,-5 19,-2 31,-5 55,-11 24,-5 58,-15 93,-26 35,-11 70,-24 101,-37 31,-13 58,-26 80,-37 23,-11 40,-21 65,-35 25,-15 58,-36 79,-50 22,-14 33,-22 52,-37 19,-14 46,-35 69,-55 24,-19 43,-37 86,-81 43,-45 110,-116 169,-182 59,-65 109,-125 172,-205 63,-79 139,-178 202,-264 63,-86 113,-160 165,-243 51,-83 104,-175 144,-254 41,-79 69,-145 96,-213 27,-68 53,-138 68,-196 16,-58 22,-103 32,-161 10,-58 25,-129 35,-199 11,-70 17,-139 23,-191 5,-53 9,-88 13,-108 5,-20 10,-24 15,-28 5,-5 11,-9 22,-17 10,-7 25,-17 39,-24 14,-8 27,-13 44,-17 17,-3 39,-5 59,-5 20,0 37,2 50,4 14,2 23,4 29,5 7,2 12,3 14,4 2,1 2,2 1,3 0,2 -1,4 -3,16 -3,11 -7,32 -20,83 -13,52 -34,134 -52,203 -19,69 -35,126 -56,192 -21,66 -46,141 -67,201 -21,61 -37,106 -72,195 -35,89 -88,221 -126,314 -39,93 -63,148 -94,214 -31,66 -69,144 -132,248 -63,104 -153,235 -271,368 -117,133 -263,269 -382,369 -120,99 -213,161 -295,209 -83,47 -154,79 -221,103 -66,25 -127,41 -190,51 -62,11 -125,14 -207,9 -83,-5 -185,-19 -262,-31 -77,-12 -130,-23 -174,-33 -44,-10 -80,-18 -114,-29 -34,-10 -66,-21 -89,-31 -24,-9 -38,-17 -57,-28 -19,-11 -42,-25 -73,-49 -31,-23 -70,-54 -103,-83 -33,-29 -60,-54 -94,-88 -33,-34 -73,-76 -112,-119 -39,-44 -78,-89 -118,-138 -40,-50 -81,-102 -131,-175 -50,-73 -109,-166 -154,-232 -44,-67 -74,-106 -118,-174 -43,-68 -100,-165 -159,-266 -59,-101 -119,-208 -178,-313 -59,-106 -116,-212 -157,-290 -41,-79 -65,-130 -89,-185 -23,-56 -47,-116 -59,-149 -13,-33 -15,-39 -16,-42 -2,-4 -2,-4 -1,-4 0,0 0,0 36,4z"/>
  <path class="fil17 str0" d="M9427 8148c-1,-198 -12,-429 -4,-691 8,-263 34,-557 87,-809 52,-252 131,-462 223,-643 92,-181 197,-333 344,-478 147,-144 336,-280 509,-378 173,-97 331,-154 478,-194 147,-39 283,-60 446,-76 163,-16 352,-26 509,-26 158,0 284,10 415,31 131,21 268,53 399,95 131,42 257,94 362,149 105,56 189,113 294,210 105,98 231,234 333,363 103,128 182,249 237,362 55,113 86,218 118,312 31,95 63,179 76,279 13,99 8,215 8,399 0,183 5,435 8,714 2,278 2,582 -6,845 -7,262 -23,483 -44,659 -21,176 -47,308 -64,399 -17,91 -26,140 -31,167 -5,26 -8,30 -14,30 -5,-1 -15,-5 -26,-8 -10,-2 -22,-2 -37,-4 -14,-2 -32,-6 -53,-6 -21,1 -46,7 -72,20 -26,13 -53,32 -112,94 -59,61 -150,164 -231,224 -81,61 -152,80 -199,90 -46,10 -69,12 -105,12 -37,-1 -86,-2 -127,-8 -40,-5 -71,-14 -110,-25 -38,-11 -85,-25 -140,-52 -55,-27 -118,-68 -160,-96 -42,-28 -63,-43 -82,-55 -18,-13 -33,-23 -51,-37 -18,-13 -39,-30 -65,-49 -26,-19 -55,-41 -81,-62 -25,-21 -46,-42 -66,-63 -21,-20 -40,-41 -134,-64 -94,-22 -262,-47 -420,-20 -158,26 -306,103 -421,164 -114,62 -196,108 -253,138 -56,30 -88,43 -125,58 -36,15 -76,31 -129,49 -53,18 -119,37 -187,55 -69,18 -141,34 -212,42 -71,9 -141,10 -186,12 -46,1 -67,2 -85,3 -18,1 -32,1 -67,-1 -35,-1 -91,-3 -135,-12 -45,-8 -77,-24 -101,-34 -24,-10 -40,-15 -57,-19 -17,-4 -35,-6 -69,-8 -33,-2 -84,-5 -111,-10 -28,-4 -32,-11 -35,-16 -3,-5 -4,-9 -10,-37 -7,-27 -20,-77 -33,-148 -14,-71 -28,-162 -51,-293 -24,-131 -55,-302 -83,-409 -27,-108 -51,-153 -63,-244 -11,-92 -11,-231 -8,-384 4,-152 11,-317 9,-516z"/>
  <path class="fil11 str0" d="M13841 9930c-56,59 -112,119 -169,172 -57,54 -115,101 -174,134 -59,33 -120,51 -201,54 -81,2 -184,-11 -272,-37 -88,-26 -161,-66 -245,-118 -84,-53 -179,-118 -250,-174 -71,-55 -118,-100 -166,-145"/>
  <path class="fil11 str0" d="M9882 10211c58,24 117,47 191,59 74,12 163,12 264,6 101,-5 214,-15 321,-36 106,-21 206,-53 305,-91 100,-38 200,-83 271,-125 71,-41 114,-81 156,-120"/>
  <path class="fil11 str0" d="M13841 9930c38,-31 76,-63 122,-73 46,-11 99,0 125,5 27,5 27,5 27,5"/>
  <path class="fil11 str0" d="M13662 5513c-55,1026 -110,2052 -144,2574 -33,521 -44,539 -60,567 -15,28 -35,67 -55,106"/>
  <path class="fil11 str0" d="M10184 5450c-55,1026 -110,2052 -139,2585 -30,533 -32,572 -18,649 14,77 45,191 76,305"/>
  <path class="fil8 str0" d="M12284 9070c-12,34 -17,92 22,179 39,86 123,202 241,286 119,84 271,136 371,170 99,35 147,50 210,56 63,5 141,0 220,-58 79,-58 158,-168 241,-282 84,-114 173,-232 160,-332 -13,-99 -128,-181 -202,-235 -73,-54 -104,-80 -168,-103 -64,-23 -160,-43 -255,-31 -95,13 -189,58 -321,111 -132,54 -302,117 -395,155 -94,37 -113,49 -124,84z"/>
  <path class="fil8 str0" d="M11521 9070c12,34 17,92 -22,179 -40,86 -124,202 -242,286 -118,84 -270,136 -370,170 -100,35 -147,50 -210,56 -63,5 -142,0 -220,-58 -79,-58 -158,-168 -242,-282 -84,-114 -172,-232 -159,-332 13,-99 128,-181 201,-235 74,-54 105,-80 169,-103 63,-23 159,-43 254,-31 96,13 190,58 322,111 132,54 301,117 395,155 94,37 112,49 124,84z"/>
  <path class="fil5 str0" d="M11438 8302c-73,0 -217,0 -289,-1 -72,-2 -72,-4 31,-284 104,-280 311,-836 415,-1114 104,-278 104,-278 167,-278 63,0 189,0 252,0 63,0 63,0 172,278 109,278 327,834 437,1113 110,278 113,278 43,279 -69,2 -211,4 -282,6 -71,1 -71,1 -93,-49 -23,-50 -67,-150 -90,-200 -22,-49 -22,-49 -120,-47 -99,3 -296,8 -394,11 -98,2 -98,2 -106,33 -9,32 -25,94 -34,130 -10,36 -13,46 -17,59 -3,13 -8,29 -11,39 -3,10 -5,15 -6,18 -1,3 -2,5 -2,5 -1,1 -1,1 -1,1 0,1 0,1 -72,1z"/>
  <path class="fil17 str8" d="M11873 7220c-2,-1 -2,2 -28,73 -26,72 -77,214 -103,286 -26,73 -28,77 -28,78 -1,2 -1,0 63,0 63,-1 191,-1 257,-1 67,0 72,0 73,-1 2,-2 0,-5 -38,-76 -39,-71 -115,-211 -153,-282 -39,-72 -42,-76 -43,-77z"/>
  <path class="fil3 str0" d="M13766 9086c-17,3 -17,3 -18,3 0,-1 0,-1 -1,-6 -1,-4 -2,-12 -5,-20 -2,-7 -5,-15 -10,-24 -4,-9 -10,-20 -20,-34 -9,-13 -22,-29 -35,-43 -13,-14 -26,-26 -45,-42 -18,-15 -42,-33 -68,-53 -26,-20 -55,-41 -75,-55 -20,-14 -31,-22 -43,-29 -12,-7 -25,-14 -41,-21 -15,-7 -34,-14 -54,-20 -19,-6 -40,-11 -60,-14 -20,-4 -40,-6 -56,-8 -15,-2 -27,-2 -44,-2 -16,0 -37,1 -58,3 -22,2 -43,6 -60,10 -17,4 -29,7 -62,20 -34,12 -88,32 -175,66 -86,34 -205,81 -280,110 -74,30 -104,41 -125,50 -22,8 -36,13 -52,20 -16,7 -35,16 -48,24 -14,7 -22,12 -28,18 -5,6 -9,11 -12,16 -3,5 -5,9 -7,12 -2,2 -4,2 -30,4 -25,2 -75,4 -123,7 -49,2 -97,4 -139,4 -42,1 -78,1 -133,0 -54,-1 -127,-4 -180,-6 -53,-2 -85,-3 -107,-4 -23,-1 -35,-2 -42,-2 -6,-1 -7,-1 -9,-4 -3,-4 -7,-10 -11,-16 -4,-5 -10,-11 -17,-16 -7,-6 -16,-12 -33,-20 -18,-9 -44,-20 -108,-45 -64,-26 -167,-65 -253,-100 -86,-34 -156,-62 -207,-82 -51,-20 -83,-32 -112,-41 -28,-9 -54,-16 -73,-20 -20,-4 -34,-6 -49,-7 -16,-1 -34,-1 -55,0 -22,1 -49,3 -73,7 -24,4 -47,9 -66,14 -20,5 -37,11 -51,17 -14,6 -26,11 -39,18 -14,8 -30,18 -53,33 -22,16 -52,38 -79,58 -27,20 -50,39 -72,58 -21,19 -41,38 -52,49 -10,10 -13,13 -14,13 -2,0 -3,-3 -11,-36 -9,-33 -25,-96 -38,-149 -13,-54 -23,-99 -28,-121 -5,-23 -5,-24 44,-48 50,-24 148,-72 238,-99 90,-28 171,-36 238,-35 67,2 120,12 197,37 78,25 180,64 292,113 111,49 232,106 333,147 101,41 182,64 277,83 94,18 202,31 308,30 107,-1 212,-17 334,-49 122,-31 261,-78 368,-122 108,-43 184,-82 271,-113 86,-30 184,-51 278,-59 93,-7 184,-2 266,19 81,21 153,58 208,88 55,31 94,56 116,90 23,34 29,77 38,127 10,50 22,107 25,139 4,31 -2,37 -21,43 -20,6 -54,12 -71,15z"/>
  <path class="fil11 str0" d="M12284 9070c-104,6 -209,12 -295,13 -86,2 -154,-1 -229,-4 -75,-3 -157,-6 -239,-9"/>
  <path class="fil18 str0" d="M13480 8815c12,18 37,55 65,89 28,34 58,66 79,97 22,32 35,63 37,96 2,33 -7,67 -27,106 -19,40 -50,84 -77,131 -26,48 -50,98 -85,153 -35,56 -81,117 -130,153 -48,36 -99,47 -152,52 -52,5 -106,3 -157,3 -51,-1 -99,-1 -121,0 -22,1 -17,2 -9,5 9,3 21,7 37,13 15,6 34,12 53,18 18,6 36,11 53,15 17,3 33,6 46,9 12,2 21,4 29,5 8,1 14,1 20,1 6,0 12,1 18,1 7,0 13,1 22,0 9,-1 20,-2 29,-3 9,-1 15,-2 23,-4 7,-1 16,-3 24,-6 9,-3 17,-5 24,-8 6,-3 12,-6 20,-10 8,-4 17,-8 25,-13 8,-4 14,-9 20,-13 5,-3 8,-6 13,-10 4,-4 9,-8 16,-15 7,-6 15,-14 25,-23 10,-10 21,-22 33,-35 11,-13 24,-27 33,-38 9,-11 15,-18 23,-30 9,-11 21,-26 29,-37 7,-10 11,-15 14,-20 4,-5 8,-10 12,-15 3,-5 7,-10 11,-16 5,-6 11,-12 19,-23 8,-10 19,-26 30,-41 11,-16 23,-32 35,-49 12,-17 24,-35 38,-58 14,-23 30,-51 40,-70 10,-19 14,-29 18,-42 4,-13 9,-28 11,-40 3,-11 3,-19 4,-27 0,-7 0,-13 -1,-21 -1,-8 -4,-19 -6,-27 -2,-8 -5,-15 -8,-22 -2,-7 -5,-13 -10,-22 -6,-8 -13,-19 -20,-28 -7,-10 -14,-18 -26,-31 -12,-12 -29,-28 -41,-38 -11,-10 -16,-14 -26,-23 -10,-8 -25,-20 -40,-31 -15,-12 -30,-23 -43,-33 -13,-9 -25,-17 -34,-23 -9,-7 -16,-11 -20,-14 -4,-2 -4,-4 -5,-5 0,-1 -2,-2 10,17z"/>
  <path class="fil18 str0" d="M10327 8814c-12,18 -37,55 -65,89 -28,35 -58,66 -79,98 -22,31 -35,62 -37,95 -2,33 7,67 27,107 19,39 50,84 77,131 26,47 50,97 85,153 35,55 81,116 130,152 48,37 99,47 152,52 52,5 106,4 157,3 51,0 99,0 121,1 21,0 17,2 9,4 -9,3 -21,8 -37,13 -15,6 -34,13 -53,19 -18,5 -36,10 -53,14 -17,4 -33,7 -46,9 -12,3 -21,4 -29,5 -8,1 -14,1 -20,1 -6,1 -12,1 -18,1 -7,1 -13,1 -22,0 -9,0 -20,-1 -29,-3 -9,-1 -15,-2 -23,-3 -7,-2 -16,-4 -24,-7 -9,-2 -17,-5 -24,-8 -7,-3 -12,-6 -20,-9 -8,-4 -17,-9 -25,-13 -8,-5 -14,-10 -20,-13 -5,-4 -9,-7 -13,-10 -4,-4 -9,-9 -16,-15 -7,-7 -16,-14 -25,-24 -10,-10 -21,-21 -33,-34 -11,-13 -24,-28 -33,-39 -9,-11 -15,-18 -24,-29 -8,-12 -20,-27 -28,-37 -7,-10 -11,-16 -14,-21 -4,-5 -8,-9 -12,-14 -3,-5 -7,-11 -11,-16 -5,-6 -11,-13 -19,-23 -8,-11 -19,-26 -30,-42 -11,-16 -23,-32 -35,-49 -12,-17 -24,-35 -38,-58 -14,-22 -30,-50 -40,-69 -10,-19 -14,-29 -18,-42 -4,-13 -9,-29 -11,-40 -3,-12 -3,-20 -4,-27 0,-7 0,-14 1,-22 1,-8 4,-18 6,-27 2,-8 5,-15 8,-21 2,-7 5,-14 10,-23 6,-8 13,-18 20,-28 7,-9 14,-18 26,-30 12,-13 29,-29 41,-39 11,-10 16,-14 26,-22 10,-8 25,-20 40,-32 15,-12 30,-23 43,-32 13,-10 25,-18 34,-24 9,-6 16,-10 20,-13 4,-3 4,-4 5,-5 0,-1 2,-2 -10,16z"/>
  <path class="fil19" d="M11757 9831c0,56 1,167 1,290 1,123 1,259 14,358 12,99 38,162 50,192 12,31 10,30 6,28 -4,-2 -10,-5 -19,-10 -9,-5 -21,-12 -31,-18 -10,-7 -18,-13 -27,-20 -8,-7 -18,-15 -29,-23 -11,-8 -22,-16 -36,-24 -14,-7 -31,-14 -55,-22 -24,-7 -55,-14 -86,-20 -30,-7 -60,-13 -83,-18 -23,-5 -39,-10 -55,-18 -15,-7 -30,-16 -41,-27 -11,-10 -19,-21 -25,-33 -6,-11 -10,-24 -14,-39 -3,-14 -5,-31 -5,-54 0,-23 2,-53 5,-80 3,-28 8,-53 14,-84 7,-31 15,-67 23,-102 8,-34 16,-66 21,-88 5,-22 7,-34 8,-42 2,-9 2,-13 2,-19 1,-7 1,-15 1,-20 1,-4 3,-5 8,-8 5,-3 13,-7 39,-21 27,-13 72,-36 111,-55 39,-18 74,-33 99,-43 26,-10 43,-16 58,-21 15,-5 28,-9 36,-12 7,-2 8,-3 9,-3 0,0 0,0 1,56z"/>
  <path class="fil19" d="M9891 10247c8,32 24,95 43,160 20,64 44,131 85,222 42,91 102,207 171,319 68,113 147,222 239,343 93,122 200,257 297,377 97,119 185,223 249,297 64,74 103,118 124,140 21,22 24,21 57,18 34,-3 99,-9 168,-13 69,-4 143,-6 207,-8 65,-3 122,-4 142,-5 20,-1 3,-1 -105,-127 -108,-126 -307,-377 -442,-568 -136,-190 -206,-320 -269,-462 -63,-142 -119,-295 -157,-413 -38,-117 -59,-199 -71,-239 -13,-41 -17,-40 -46,-36 -28,4 -81,11 -143,16 -61,5 -130,8 -180,9 -50,1 -82,1 -110,-1 -28,-1 -52,-4 -74,-6 -22,-3 -42,-6 -67,-14 -26,-7 -57,-19 -80,-27 -22,-8 -34,-12 -41,-14 -6,-1 -6,0 3,32z"/>
  <path class="fil20" d="M10551 9135c36,14 102,39 169,56 67,18 134,28 195,31 62,3 116,0 178,-10 61,-9 130,-25 165,-33 34,-8 34,-8 35,12 0,19 1,58 -51,85 -51,27 -156,43 -271,37 -115,-6 -241,-33 -338,-62 -96,-28 -163,-58 -198,-84 -36,-27 -40,-51 -26,-70 13,-20 44,-36 55,-37 11,-2 2,12 -3,19 -5,6 -5,6 -4,8 1,1 3,3 7,6 5,4 12,8 18,12 7,3 13,6 19,9 7,3 13,6 50,21z"/>
  <path class="fil21 str0" d="M11340 9094c-46,-33 -138,-95 -207,-129 -68,-35 -114,-43 -172,-50 -58,-6 -127,-11 -189,-1 -62,9 -116,34 -166,60 -49,25 -95,52 -122,71 -26,19 -32,31 -28,40 5,10 21,18 65,39 45,20 118,53 198,75 80,22 167,34 259,30 92,-4 189,-23 254,-40 65,-17 99,-31 119,-39 20,-9 27,-12 31,-16 3,-4 4,-7 -42,-40z"/>
  <path class="fil22 str0" d="M11162 8996c-1,17 -3,50 -8,89 -6,38 -15,82 -20,104 -6,22 -8,23 -12,24 -4,0 -10,1 -18,3 -8,1 -18,2 -37,5 -20,2 -50,5 -75,6 -26,2 -47,2 -70,2 -23,-1 -49,-3 -75,-6 -25,-3 -51,-7 -64,-9 -13,-2 -13,-3 -15,-17 -2,-14 -5,-42 -4,-76 1,-33 8,-73 18,-109 10,-36 24,-70 33,-87 9,-16 13,-17 19,-17 6,0 13,0 25,0 11,1 27,1 40,2 13,1 24,2 38,3 14,2 30,3 44,5 15,2 28,4 41,7 13,3 26,7 38,11 13,4 25,8 34,11 10,4 17,7 27,12 10,5 23,12 31,15 7,4 9,4 10,5 1,0 1,1 0,17z"/>
  <path class="fil23 str0" d="M11050 8936c5,7 11,18 11,33 0,16 -4,36 -13,51 -8,16 -21,28 -36,35 -14,8 -32,11 -52,6 -21,-4 -45,-16 -59,-32 -14,-16 -17,-35 -15,-55 1,-21 7,-42 10,-53 4,-11 5,-12 9,-12 3,1 9,2 16,3 8,0 18,1 28,3 11,1 22,2 29,3 8,1 12,1 21,3 8,1 21,4 31,6 9,2 14,3 20,9z"/>
  <path class="fil20" d="M13281 9121c-36,14 -102,39 -169,57 -67,17 -134,27 -195,31 -61,3 -116,-1 -178,-10 -61,-10 -130,-25 -165,-33 -34,-8 -34,-8 -35,11 0,20 -1,59 51,86 52,27 156,43 271,37 115,-6 241,-34 338,-62 96,-29 163,-58 199,-85 35,-26 39,-50 25,-70 -13,-20 -44,-36 -55,-37 -11,-1 -2,12 3,19 5,7 5,7 4,8 -1,1 -3,4 -7,7 -5,3 -11,8 -18,11 -7,4 -13,7 -19,10 -7,3 -13,6 -50,20z"/>
  <path class="fil21 str0" d="M12485 9085c45,-33 137,-95 206,-130 69,-34 115,-42 173,-49 57,-6 127,-12 189,-2 61,10 115,35 165,61 50,25 96,51 122,70 26,20 33,31 28,41 -4,10 -20,18 -65,38 -44,21 -118,53 -198,76 -80,22 -166,34 -258,30 -92,-4 -189,-24 -255,-41 -65,-16 -98,-30 -118,-39 -21,-8 -28,-12 -31,-15 -4,-4 -4,-8 42,-40z"/>
  <path class="fil24 str0" d="M12663 8987c1,17 2,50 8,88 5,39 14,83 20,105 6,22 7,23 11,23 4,1 10,2 18,3 8,2 18,3 38,5 20,2 50,5 75,7 25,2 46,2 70,1 23,0 48,-2 74,-5 26,-3 51,-7 64,-10 13,-2 14,-2 15,-16 2,-14 6,-42 5,-76 -2,-34 -8,-73 -19,-109 -10,-37 -24,-70 -32,-87 -9,-17 -13,-17 -19,-17 -6,0 -14,0 -25,0 -12,0 -27,1 -40,2 -13,1 -25,1 -38,3 -14,1 -30,3 -45,5 -14,2 -27,3 -40,6 -13,3 -26,8 -39,12 -12,4 -24,8 -34,11 -9,4 -17,7 -27,12 -10,5 -23,11 -30,15 -7,3 -9,4 -10,4 -1,1 -1,1 0,18z"/>
  <path class="fil23 str0" d="M12775 8927c-6,6 -11,18 -11,33 -1,16 4,35 12,51 9,16 21,28 36,35 15,7 32,10 53,6 21,-5 45,-17 58,-32 14,-16 17,-35 16,-55 -1,-21 -7,-43 -11,-54 -3,-11 -5,-11 -8,-11 -4,0 -9,1 -17,2 -8,1 -18,2 -28,3 -10,1 -21,3 -29,4 -7,0 -11,1 -20,2 -9,2 -22,4 -31,6 -9,2 -15,4 -20,10z"/>
 </g>
</svg>
