<?xml version="1.0" encoding="UTF-8"?>
<!DOCTYPE svg PUBLIC "-//W3C//DTD SVG 1.1//EN" "http://www.w3.org/Graphics/SVG/1.1/DTD/svg11.dtd">
<!-- Creator: CorelDRAW X7 -->
<svg xmlns="http://www.w3.org/2000/svg" xml:space="preserve" width="210mm" height="297mm" version="1.1" style="shape-rendering:geometricPrecision; text-rendering:geometricPrecision; image-rendering:optimizeQuality; fill-rule:evenodd; clip-rule:evenodd"
viewBox="0 0 21000 29700"
 xmlns:xlink="http://www.w3.org/1999/xlink">
 <defs>
  <style type="text/css">
   <![CDATA[
    .str0 {stroke:#2B2A29;stroke-width:20}
    .str1 {stroke:#D1AD89;stroke-width:7.62}
    .fil2 {fill:none}
    .fil8 {fill:#FEFEFE}
    .fil9 {fill:#2B2A29}
    .fil14 {fill:#FFED00}
    .fil10 {fill:#F5B2B6}
    .fil5 {fill:#E31E24}
    .fil11 {fill:#B12322}
    .fil6 {fill:#A13542}
    .fil13 {fill:#B89A2C}
    .fil3 {fill:#BE4459}
    .fil4 {fill:#D1AD89}
    .fil12 {fill:#D1AD89}
    .fil1 {fill:#D1B85C}
    .fil0 {fill:#E6CC6E}
    .fil7 {fill:#F8E4C9}
   ]]>
  </style>
 </defs>
 <g id="Layer_x0020_1">
  <metadata id="CorelCorpID_0Corel-Layer"/>
  <path class="fil0 str0" d="M3271 14851c525,91 1248,175 1858,238 611,63 1109,104 2246,132 1138,28 2913,42 4036,21 1123,-21 1594,-76 2307,-200 713,-123 1668,-315 2342,-515 673,-200 1065,-410 1323,-568 259,-159 385,-266 469,-378 84,-112 126,-228 123,-333 -2,-105 -49,-198 -117,-293 -68,-94 -158,-190 -326,-318 -168,-128 -415,-289 -787,-473 -372,-184 -868,-391 -1452,-588 -583,-197 -1254,-383 -2092,-562 -838,-178 -1842,-348 -2661,-447 -819,-99 -1453,-127 -2222,-78 -769,49 -1673,175 -2419,310 -745,135 -1333,279 -1864,459 -531,179 -1006,394 -1535,664 -529,270 -1112,596 -1436,806 -324,210 -389,303 -429,403 -39,100 -53,208 -44,313 10,104 42,207 112,319 70,112 177,233 415,368 238,135 606,284 953,408 348,123 676,221 1200,312z"/>
  <path class="fil1" d="M16105 14491c603,-189 964,-383 1207,-532 259,-159 385,-266 468,-378 84,-112 126,-228 124,-333 -2,-105 -49,-198 -117,-293 -68,-94 -158,-190 -326,-318 -169,-128 -416,-289 -787,-473 -372,-184 -868,-391 -1452,-588 -584,-197 -1255,-383 -2093,-562 -401,-85 -840,-169 -1279,-243 -6,204 49,443 233,666 282,344 870,651 1711,1297 700,537 1576,1308 2311,1757z"/>
  <path class="fil0 str0" d="M4592 10967c3,-124 10,-370 51,-652 40,-282 115,-598 201,-869 86,-270 184,-494 308,-722 123,-228 272,-461 398,-632 126,-170 229,-277 387,-417 159,-140 373,-313 680,-462 308,-149 709,-274 1061,-372 352,-98 654,-168 1009,-207 354,-40 759,-49 1190,-7 431,42 888,135 1249,263 361,128 627,291 876,480 250,189 483,403 676,622 194,219 347,443 506,769 158,326 321,755 441,1174 120,419 196,829 237,1034 40,206 44,207 33,204 -11,-3 -38,-9 -553,-193 -516,-183 -1521,-545 -2433,-720 -913,-176 -1733,-167 -2588,-69 -855,98 -1746,284 -2320,435 -575,151 -835,266 -1007,334 -171,68 -255,90 -307,104 -53,15 -75,23 -87,26 -11,3 -12,1 -8,-123z"/>
  <path class="fil2 str0" d="M5825 9463c-61,140 -68,568 -68,737"/>
  <path class="fil2 str0" d="M5650 9592c-37,84 -41,342 -41,444"/>
  <path class="fil2 str0" d="M6004 9446c-37,84 -41,342 -41,444"/>
  <path class="fil2 str0" d="M6217 9335c-37,84 -41,342 -41,444"/>
  <path class="fil2 str0" d="M5551 8685c-48,87 -76,366 -86,475"/>
  <path class="fil2 str0" d="M5758 8556c-48,87 -77,365 -87,475"/>
  <path class="fil2 str0" d="M5933 8580c-48,87 -77,366 -87,476"/>
  <path class="fil2 str0" d="M6216 8553c-48,87 -77,365 -87,475"/>
  <path class="fil2 str0" d="M6418 8354c-48,87 -76,365 -86,475"/>
  <path class="fil2 str0" d="M5938 7938c-32,58 -51,241 -57,314"/>
  <path class="fil2 str0" d="M6176 7757c-32,58 -51,242 -57,314"/>
  <path class="fil2 str0" d="M6378 7743c-31,58 -50,242 -57,314"/>
  <path class="fil2 str0" d="M6323 19994c674,1 1349,3 1708,17 360,14 404,39 500,117 96,78 244,209 319,275 75,66 78,67 80,68"/>
  <path class="fil2 str0" d="M12338 19994c-674,1 -1349,3 -1708,17 -360,14 -404,39 -500,117 -96,78 -244,209 -319,275 -76,66 -78,67 -80,68"/>
  <path class="fil3 str0" d="M12011 21897c836,2 2508,5 3344,6 837,1 837,1 837,1 0,0 0,0 -3,-166 -3,-166 -8,-498 -10,-761 -3,-264 -3,-460 -42,-659 -38,-199 -115,-402 -208,-535 -94,-133 -204,-196 -336,-275 -132,-80 -286,-176 -534,-278 -248,-102 -590,-211 -871,-303 -280,-93 -499,-170 -665,-239 -166,-69 -280,-130 -463,-240 -184,-110 -437,-269 -593,-368 -157,-99 -216,-137 -267,-165 -51,-28 -93,-46 -183,-22 -90,24 -228,88 -327,127 -100,38 -161,51 -191,57 -31,6 -31,6 -29,7 2,0 5,1 38,11 33,9 96,27 174,54 79,27 173,63 255,96 81,33 149,64 203,90 55,26 95,48 125,68 30,19 50,36 64,50 15,15 23,27 30,44 7,18 14,40 18,66 5,25 8,55 8,88 0,33 -1,69 -5,111 -4,41 -10,88 -21,147 -10,60 -26,132 -44,200 -18,68 -38,132 -64,198 -25,67 -56,135 -102,230 -46,95 -108,216 -178,347 -69,131 -145,273 -238,440 -92,167 -200,360 -285,511 -85,151 -146,261 -180,326 -34,66 -40,87 -40,110 -1,24 4,50 12,84 9,34 21,75 33,114 12,39 25,76 34,106 10,30 18,53 22,71 4,19 5,33 3,48 -3,15 -8,31 -18,51 -10,20 -25,43 -41,66 -16,23 -33,45 -48,58 -15,14 -28,19 -36,21 -8,3 -12,3 -13,3 -2,1 -2,2 835,4z"/>
  <path class="fil3 str0" d="M7264 17936c-105,-16 -318,-50 -433,-62 -115,-12 -132,-3 -175,30 -43,34 -113,92 -300,199 -186,106 -489,260 -846,450 -356,191 -765,418 -1027,568 -262,150 -377,224 -492,320 -116,96 -231,215 -320,351 -89,136 -152,290 -198,418 -45,127 -73,229 -103,335 -30,107 -61,219 -93,311 -31,93 -62,166 -169,338 -107,171 -288,441 -380,576 -91,134 -92,134 730,134 823,0 2468,0 3292,0 823,0 825,0 818,-35 -7,-35 -22,-106 -31,-144 -8,-39 -9,-46 -10,-49 -2,-4 -3,-5 -7,-4 -4,0 -11,2 -32,17 -22,14 -58,41 -107,71 -48,30 -108,64 -152,84 -44,19 -72,24 -94,23 -21,0 -35,-7 -46,-17 -10,-10 -16,-23 -13,-52 2,-30 14,-75 33,-125 18,-49 44,-102 72,-151 29,-50 62,-96 80,-122 18,-26 21,-32 23,-41 1,-9 0,-20 -8,-40 -9,-20 -25,-49 -198,-290 -173,-240 -502,-691 -683,-938 -181,-248 -213,-292 -244,-338 -31,-46 -61,-94 -83,-131 -21,-38 -34,-65 -45,-94 -11,-30 -21,-62 -25,-86 -5,-25 -4,-42 -3,-61 2,-19 3,-40 10,-65 6,-25 17,-53 27,-78 11,-26 20,-48 32,-71 13,-24 28,-50 43,-75 15,-26 30,-51 43,-73 12,-23 22,-43 72,-129 50,-86 140,-237 191,-319 51,-82 63,-95 81,-110 18,-15 42,-31 78,-51 36,-19 84,-42 164,-81 80,-38 192,-93 285,-141 93,-48 167,-90 231,-129 64,-38 117,-72 143,-89 25,-17 22,-18 13,-18 -9,0 -25,0 -34,0 -8,0 -9,0 -8,0 1,0 3,0 -102,-16z"/>
  <path class="fil2 str0" d="M4086 20047c-3,388 -7,776 11,1086 17,309 56,540 94,771"/>
  <path class="fil2 str0" d="M13409 21900c28,-250 56,-501 135,-776 78,-275 208,-576 272,-726 65,-150 65,-150 65,-150"/>
  <path class="fil2 str0" d="M14699 20478c-241,474 -482,949 -603,1186 -121,237 -121,237 -121,237"/>
  <path class="fil4" d="M7755 17048c-5,20 -16,58 -25,108 -9,51 -17,114 -25,185 -8,72 -16,151 -22,206 -6,54 -9,84 42,188 51,104 156,282 371,518 214,235 540,529 803,718 264,189 467,272 706,339 240,66 516,115 822,119 306,3 641,-39 874,-74 232,-35 361,-63 452,-84 91,-21 144,-35 187,-19 44,16 79,61 115,109 36,49 73,99 92,125 18,25 18,25 38,-25 20,-50 61,-151 95,-264 34,-112 63,-237 78,-344 15,-108 17,-199 7,-267 -10,-67 -33,-111 -60,-143 -27,-33 -59,-53 -151,-96 -91,-43 -243,-108 -380,-163 -138,-55 -261,-98 -326,-127 -66,-29 -74,-44 -83,-74 -9,-30 -20,-76 -29,-132 -9,-55 -16,-119 -25,-313 -9,-194 -21,-518 -29,-677 -8,-159 -14,-154 -22,-146 -9,8 -22,18 -98,81 -77,62 -217,176 -390,301 -174,125 -380,261 -568,369 -189,108 -361,188 -489,241 -127,53 -210,79 -261,92 -51,14 -70,15 -100,9 -30,-5 -71,-18 -127,-38 -57,-19 -129,-46 -243,-92 -113,-47 -268,-115 -393,-173 -125,-58 -221,-107 -306,-151 -86,-45 -161,-84 -235,-130 -73,-45 -145,-97 -192,-130 -47,-33 -69,-48 -81,-56 -12,-8 -13,-9 -15,-10 -1,0 -1,1 -7,20z"/>
  <path class="fil1" d="M10505 6948c112,243 423,747 599,1342 176,595 217,1281 406,1655 189,374 524,437 941,589 417,153 916,395 1170,518 255,122 267,125 256,61 -10,-65 -43,-196 -80,-356 -37,-159 -78,-348 -144,-589 -67,-241 -157,-535 -228,-744 -70,-210 -121,-334 -185,-475 -65,-141 -143,-298 -196,-399 -54,-101 -81,-146 -136,-223 -54,-76 -136,-184 -195,-260 -60,-75 -98,-118 -146,-168 -47,-50 -104,-107 -176,-175 -71,-67 -158,-144 -238,-211 -81,-68 -155,-126 -242,-188 -87,-62 -188,-128 -286,-186 -99,-58 -196,-108 -290,-150 -93,-43 -183,-78 -294,-113 -110,-35 -241,-70 -324,-92 -83,-22 -119,-31 -179,-45 -61,-14 -146,-34 -33,209z"/>
  <path class="fil2 str0" d="M13002 9565c61,140 68,569 69,738"/>
  <path class="fil2 str0" d="M12567 9426c62,139 69,568 69,737"/>
  <path class="fil2 str0" d="M12743 9555c36,84 41,342 41,444"/>
  <path class="fil2 str0" d="M12389 9409c37,84 41,342 41,444"/>
  <path class="fil2 str0" d="M12176 9298c36,84 41,342 41,444"/>
  <path class="fil2 str0" d="M12841 8648c48,87 77,365 87,475"/>
  <path class="fil2 str0" d="M12635 8518c48,88 77,366 86,476"/>
  <path class="fil2 str0" d="M12460 8543c48,87 77,366 86,475"/>
  <path class="fil2 str0" d="M12177 8516c48,87 77,365 86,475"/>
  <path class="fil2 str0" d="M11974 8316c48,88 77,366 87,476"/>
  <path class="fil2 str0" d="M12455 7901c32,58 51,241 57,314"/>
  <path class="fil2 str0" d="M12217 7720c32,58 51,241 57,314"/>
  <path class="fil2 str0" d="M12014 7706c32,58 51,241 57,314"/>
  <path class="fil5 str0" d="M4916 10962c52,-55 201,-177 492,-359 291,-182 724,-424 1209,-631 485,-208 1021,-380 1470,-483 450,-102 814,-135 1184,-140 370,-4 748,19 1160,87 413,67 860,179 1319,358 459,180 930,427 1292,669 362,241 615,477 742,595 126,119 126,119 111,115 -16,-4 -47,-12 -165,-39 -119,-27 -324,-73 -659,-140 -334,-67 -799,-155 -1269,-232 -470,-78 -946,-146 -1343,-192 -396,-47 -712,-72 -1045,-82 -332,-11 -681,-7 -1077,11 -396,18 -839,50 -1409,135 -571,85 -1270,222 -1643,297 -373,75 -420,86 -369,31z"/>
  <path class="fil6" d="M12174 19501c23,13 89,57 155,73 65,16 201,33 296,-8 95,-41 165,-137 219,-189 55,-53 93,-61 155,-50 62,11 148,43 260,77 111,34 250,71 435,58 185,-12 417,-73 645,-111 227,-39 449,-55 579,-66 131,-10 170,-17 189,-20 20,-3 20,-3 -3,-18 -23,-15 -69,-46 -120,-66 -51,-20 -107,-29 -189,-52 -82,-23 -191,-60 -358,-117 -167,-56 -392,-132 -534,-180 -141,-48 -198,-69 -281,-103 -82,-34 -189,-81 -287,-129 -98,-48 -186,-98 -266,-145 -80,-47 -152,-91 -281,-171 -129,-80 -316,-197 -423,-264 -108,-67 -136,-84 -163,-98 -27,-14 -54,-26 -73,-31 -19,-6 -30,-5 -45,-4 -16,2 -35,5 -55,9 -19,4 -39,10 -65,19 -27,9 -59,22 -92,35 -34,13 -68,28 -115,46 -46,18 -103,39 -148,54 -23,8 -42,14 -58,18 64,28 133,69 232,106 98,37 227,91 331,132 105,42 154,71 200,127 46,56 77,141 82,204 5,64 -4,63 -7,125 -3,62 -29,178 -41,238 -12,60 -15,95 -48,197 -34,101 -90,209 -126,304z"/>
  <path class="fil2 str0" d="M5085 9731c-62,139 -69,568 -69,737"/>
  <path class="fil2 str0" d="M5391 9603c-62,139 -69,568 -69,737"/>
  <path class="fil7 str0" d="M7728 17143c-17,126 -42,386 -57,517 -15,132 -19,135 -78,176 -58,41 -170,119 -292,195 -122,77 -255,151 -390,217 -134,66 -271,123 -351,166 -79,42 -103,70 -184,206 -82,137 -222,381 -296,522 -75,141 -84,179 -89,225 -4,47 -4,103 59,219 62,117 188,294 407,592 219,298 532,718 688,934 156,217 156,231 130,268 -25,38 -77,98 -117,173 -41,74 -72,163 -84,215 -13,53 -8,69 11,86 20,16 55,33 128,4 74,-29 186,-104 246,-148 61,-43 70,-55 71,-17 2,38 -5,124 -8,168 -2,43 0,43 614,43 614,0 1840,0 2453,0 613,0 613,0 639,-33 27,-33 81,-98 99,-149 19,-50 3,-85 -17,-140 -20,-55 -43,-129 -62,-192 -19,-63 -32,-114 -8,-184 24,-70 87,-159 236,-419 150,-259 385,-691 539,-982 154,-291 226,-443 276,-599 50,-156 78,-317 90,-434 11,-118 7,-192 -10,-248 -16,-56 -44,-94 -157,-154 -113,-61 -311,-145 -454,-197 -144,-52 -232,-73 -292,-90 -59,-16 -89,-28 -114,-122 -24,-94 -43,-272 -55,-496 -12,-224 -17,-494 -20,-630 -3,-135 -3,-135 -53,-91 -51,44 -152,133 -270,227 -119,94 -256,194 -422,301 -167,106 -362,220 -514,300 -153,80 -261,128 -349,162 -89,35 -158,56 -203,68 -46,11 -67,13 -92,11 -26,-2 -54,-8 -133,-36 -79,-28 -208,-78 -330,-129 -122,-51 -237,-102 -332,-146 -96,-45 -172,-83 -266,-133 -94,-49 -205,-109 -274,-151 -69,-42 -96,-64 -124,-85 -28,-21 -58,-40 -84,-57 -25,-16 -47,-30 -62,-41 -16,-10 -26,-18 -43,108z"/>
  <path class="fil4" d="M7714 17150c-18,126 -42,385 -57,517 -15,131 -20,135 -78,176 -50,35 -141,98 -244,164 73,99 164,210 275,332 305,336 767,753 1142,1021 375,268 663,388 1004,482 340,94 732,164 1167,169 341,4 708,-32 1010,-72 24,-44 46,-87 67,-127 154,-292 226,-443 277,-599 50,-156 78,-317 89,-435 12,-117 7,-192 -9,-248 -16,-56 -44,-93 -157,-154 -113,-60 -311,-144 -455,-197 -143,-52 -232,-73 -291,-89 -59,-17 -90,-28 -114,-123 -25,-94 -43,-271 -55,-495 -12,-224 -18,-495 -20,-630 -1,-15 -1,-28 -1,-39 -4,-11 10,-97 -26,-76 -77,44 -238,227 -312,276 -109,73 -205,164 -313,226l-7 5c-28,19 11,-19 -87,44 -98,63 -362,220 -514,301 -152,80 -260,127 -349,162 -88,34 -157,56 -203,67 -45,12 -67,14 -92,11 -25,-2 -54,-8 -132,-36 -79,-28 -208,-78 -330,-129 -122,-50 -237,-101 -332,-146 -96,-45 -173,-83 -266,-132 -94,-50 -205,-110 -274,-151 -69,-42 -96,-65 -124,-86 -28,-21 -58,-40 -84,-56 -25,-17 -47,-31 -63,-41 -15,-11 -25,-18 -42,108z"/>
  <path class="fil1" d="M3563 14944c486,84 1154,162 1719,220 565,58 1026,97 2079,123 1052,26 2695,39 3734,19 1039,-19 1475,-71 2135,-185 659,-114 1543,-291 2166,-477 624,-185 986,-379 1225,-526 239,-146 356,-246 434,-349 77,-103 116,-211 114,-308 -2,-97 -45,-184 -109,-271 -63,-87 -146,-176 -301,-294 -156,-119 -385,-268 -729,-438 -344,-170 -803,-362 -1343,-544 -540,-183 -1161,-355 -1936,-520 -775,-165 -1705,-322 -2462,-414 -758,-92 -1345,-117 -2056,-72 -712,45 -1548,162 -2238,287 -690,125 -1234,258 -1725,424 -492,166 -932,365 -1421,615 -489,250 -1029,552 -1328,746 -300,194 -360,280 -397,373 -37,93 -50,192 -41,289 9,97 39,192 104,295 64,104 163,216 383,341 220,125 561,263 883,377 322,114 625,205 1110,289z"/>
  <path class="fil1" d="M14904 14777c175,-43 341,-88 492,-133 624,-185 986,-379 1225,-526 239,-146 356,-246 434,-349 77,-103 116,-211 114,-308 -2,-97 -45,-184 -109,-271 -63,-87 -146,-176 -301,-294 -156,-119 -385,-268 -729,-438 -344,-170 -803,-362 -1343,-544 -540,-183 -1161,-355 -1936,-520 -279,-59 -577,-118 -880,-172 35,46 75,95 119,147 465,546 1416,1377 1973,2068 449,556 642,1021 941,1340z"/>
  <path class="fil2 str0" d="M6494 18461c58,-138 117,-275 151,-348 35,-74 45,-82 66,-85 20,-3 49,1 76,5 26,5 49,10 71,15"/>
  <path class="fil2 str0" d="M11488 18405c-33,-121 -66,-242 -82,-302 -16,-60 -16,-60 -16,-60"/>
  <path class="fil2 str0" d="M7545 18142c37,-127 74,-254 92,-318 19,-63 19,-63 19,-63"/>
  <path class="fil7 str0" d="M6193 12513c-76,394 -37,927 12,1424 49,496 107,955 192,1327 85,371 197,655 332,868 136,212 294,351 529,533 236,182 548,406 821,571 272,165 505,273 708,361 203,89 375,159 480,194 105,35 142,35 249,2 107,-33 285,-98 508,-212 224,-114 494,-277 730,-448 235,-170 435,-347 582,-491 147,-145 240,-256 392,-555 151,-298 361,-783 494,-1076 132,-294 188,-396 256,-744 67,-347 147,-939 107,-1419 -39,-481 -198,-850 -766,-1077 -569,-226 -1548,-310 -2245,-334 -698,-24 -1114,11 -1554,50 -441,39 -904,81 -1232,229 -328,148 -519,403 -595,797z"/>
  <path class="fil8 str0" d="M7158 15589c147,14 431,42 790,76 359,35 792,77 1270,91 478,14 1000,0 1400,-37 401,-37 681,-98 821,-128 139,-30 139,-30 132,12 -7,42 -21,125 -86,279 -65,154 -182,378 -314,559 -133,182 -282,322 -434,458 -151,137 -305,269 -474,373 -169,104 -353,178 -502,227 -149,49 -263,73 -382,67 -119,-6 -243,-41 -434,-112 -191,-71 -449,-178 -645,-276 -196,-98 -329,-187 -454,-279 -126,-92 -245,-187 -381,-374 -137,-186 -291,-463 -376,-635 -85,-172 -102,-239 -107,-273 -4,-35 3,-38 12,-39 8,-2 17,-3 164,11z"/>
  <path class="fil8 str0" d="M7313 16238c45,21 161,104 395,166 233,61 585,101 995,125 409,25 878,34 1299,17 421,-17 795,-61 982,-83 187,-22 187,-22 153,18 -34,41 -103,121 -203,221 -100,101 -232,222 -338,314 -107,91 -188,153 -270,208 -82,54 -166,102 -261,147 -94,44 -199,86 -289,117 -90,30 -165,50 -238,60 -74,10 -147,11 -231,-1 -83,-11 -178,-36 -314,-84 -136,-48 -313,-119 -493,-204 -179,-84 -361,-183 -486,-257 -126,-74 -194,-124 -257,-176 -62,-51 -119,-104 -191,-192 -73,-87 -161,-210 -217,-292 -57,-82 -82,-124 -36,-104z"/>
  <path class="fil9 str0" d="M8676 11579c28,137 84,403 142,617 58,215 119,378 191,527 72,149 156,284 231,405 74,121 140,229 177,285 37,55 46,60 51,53 5,-7 5,-26 -27,-129 -32,-103 -95,-290 -133,-502 -37,-213 -48,-449 -56,-681 -8,-233 -12,-461 -12,-580 0,-119 4,-128 -17,-133 -21,-6 -67,-7 -150,-7 -83,-1 -201,-1 -278,-3 -76,-1 -110,-5 -127,-2 -18,3 -19,12 8,150z"/>
  <path class="fil2 str0" d="M12227 11066c147,-6 533,137 685,196"/>
  <path class="fil2 str0" d="M14296 11737c184,0 638,67 769,210"/>
  <path class="fil2 str0" d="M14078 11900c184,0 638,67 769,209"/>
  <path class="fil2 str0" d="M13833 12023c142,0 494,52 596,162"/>
  <path class="fil2 str0" d="M13578 12103c125,0 434,45 524,142"/>
  <path class="fil2 str0" d="M15762 12284c172,62 577,278 652,457"/>
  <path class="fil2 str0" d="M15502 12363c173,62 577,279 653,457"/>
  <path class="fil2 str0" d="M15229 12396c134,48 448,216 506,354"/>
  <path class="fil2 str0" d="M14962 12385c118,42 394,190 445,311"/>
  <path class="fil2 str0" d="M14742 12490c173,62 577,279 653,457"/>
  <path class="fil2 str0" d="M14482 12569c173,62 578,279 653,457"/>
  <path class="fil2 str0" d="M14209 12602c134,48 448,216 506,354"/>
  <path class="fil2 str0" d="M13943 12591c117,42 393,190 444,312"/>
  <path class="fil2 str0" d="M16862 12676c84,107 252,403 229,544"/>
  <path class="fil2 str0" d="M16618 12762c82,77 256,297 254,416"/>
  <path class="fil2 str0" d="M16421 12882c70,52 223,207 232,298"/>
  <path class="fil2 str0" d="M16258 12933c61,46 196,182 204,262"/>
  <path class="fil2 str0" d="M17074 13511c-45,102 -193,341 -304,380"/>
  <path class="fil2 str0" d="M17035 13349c-44,103 -192,342 -304,381"/>
  <path class="fil2 str0" d="M16248 14146c-149,107 -557,317 -747,278"/>
  <path class="fil2 str0" d="M16189 14028c-149,108 -557,318 -747,279"/>
  <path class="fil2 str0" d="M15902 13950c-149,107 -557,317 -747,278"/>
  <path class="fil2 str0" d="M15677 13834c-119,86 -446,255 -598,223"/>
  <path class="fil2 str0" d="M15652 13679c-120,85 -446,254 -598,223"/>
  <path class="fil2 str0" d="M6952 11114c-138,-6 -504,129 -647,185"/>
  <path class="fil2 str0" d="M6755 11305c-139,-6 -505,130 -648,185"/>
  <path class="fil2 str0" d="M6995 11365c-138,-6 -504,130 -647,185"/>
  <path class="fil2 str0" d="M6858 11044c-89,-3 -322,83 -414,119"/>
  <line class="fil2 str0" x1="7026" y1="13452" x2="8654" y2= "14068" />
  <path class="fil2 str0" d="M8654 14068c0,0 102,136 126,178"/>
  <path class="fil2 str0" d="M10131 14009c0,0 -102,136 -126,178"/>
  <path class="fil2 str0" d="M9427 14553c0,0 118,462 149,747 11,109 8,98 10,131 4,77 -177,168 -147,208"/>
  <path class="fil7 str0" d="M6314 15059c-55,-127 -159,-382 -234,-550 -76,-169 -121,-253 -162,-312 -41,-59 -78,-94 -109,-115 -30,-22 -54,-29 -95,-21 -41,9 -99,34 -144,50 -45,16 -77,24 -99,62 -22,38 -34,107 -37,201 -2,94 5,212 34,366 29,154 80,343 164,523 84,181 200,353 310,483 109,129 212,215 309,283 96,67 187,116 274,141 86,25 168,27 208,27 40,-1 39,-2 35,-8 -3,-5 -9,-14 -37,-62 -27,-48 -76,-135 -115,-215 -39,-81 -69,-154 -99,-244 -31,-90 -63,-196 -84,-268 -20,-71 -29,-108 -36,-137 -6,-30 -12,-53 -17,-65 -5,-12 -11,-12 -66,-139z"/>
  <path class="fil9 str0" d="M6692 16278c-1,82 -6,245 -39,380 -34,134 -97,239 -100,277 -4,39 52,11 134,-49 81,-59 188,-150 252,-200 64,-50 85,-59 96,-54 10,6 10,27 12,111 1,84 3,231 11,296 8,65 22,49 73,-15 50,-64 136,-175 179,-231 43,-56 43,-56 39,-60 -4,-3 -13,-9 -25,-19 -13,-9 -29,-23 -54,-43 -26,-20 -59,-46 -101,-79 -42,-34 -93,-76 -135,-112 -41,-37 -74,-68 -114,-111 -39,-43 -86,-98 -112,-129 -27,-32 -33,-41 -42,-44 -9,-3 -21,-1 -35,-1 -13,1 -28,1 -34,1 -6,0 -4,0 -5,82z"/>
  <path class="fil4" d="M9992 12385c42,95 89,212 133,332 43,119 81,240 114,368 32,127 59,261 51,385 -8,125 -51,239 -95,320 -45,81 -90,128 -113,153 -24,24 -25,26 -29,-47 -4,-72 -11,-218 -22,-433 -10,-216 -24,-501 -51,-731 -27,-230 -66,-405 -85,-493 -20,-88 -19,-89 0,-54 19,35 55,106 97,200z"/>
  <path class="fil10" d="M7362 15616c-3,1 -2,5 0,11 2,5 5,13 22,56 17,44 49,123 65,167 17,45 20,54 44,16 24,-39 71,-125 94,-168 24,-43 24,-43 25,-45 1,-2 3,-6 4,-8 1,-3 2,-4 -2,-5 -4,0 -12,-1 -26,-2 -14,-1 -34,-4 -59,-6 -24,-3 -54,-6 -80,-8 -26,-3 -48,-4 -62,-6 -14,-1 -22,-3 -25,-2z"/>
  <path class="fil10" d="M7878 15665c-2,1 -1,3 0,7 2,3 3,8 14,35 11,28 31,77 41,105 11,28 12,34 28,10 15,-24 44,-78 59,-105 14,-27 14,-27 15,-29 1,-1 2,-3 3,-5 0,-1 1,-2 -2,-3 -2,0 -7,0 -16,-1 -9,-1 -21,-2 -37,-4 -15,-2 -34,-4 -50,-5 -16,-2 -30,-3 -39,-3 -9,-1 -14,-2 -16,-2z"/>
  <path class="fil10" d="M10540 15729c1,0 1,2 0,4 -1,2 -2,5 -9,23 -7,18 -20,50 -27,68 -7,19 -8,22 -18,7 -10,-16 -29,-51 -38,-69 -10,-18 -10,-18 -10,-18 0,-1 -1,-3 -2,-4 0,-1 -1,-1 1,-1 2,-1 5,-1 11,-1 5,-1 13,-2 24,-3 10,-1 22,-2 33,-3 10,-1 19,-2 25,-3 6,0 9,-1 10,0z"/>
  <path class="fil4" d="M8658 14087c20,22 41,57 69,95 27,37 60,78 69,132 9,54 -5,122 -14,162 -9,41 -13,54 -16,63 -3,9 -6,15 -35,-12 -29,-28 -83,-88 -150,-145 -66,-57 -144,-111 -222,-165 -78,-54 -156,-109 -236,-157 -80,-49 -162,-91 -203,-112 -41,-21 -41,-22 -50,-48 -8,-26 -25,-78 -33,-104 -8,-27 -8,-27 20,-18 28,9 84,28 146,50 61,22 129,47 192,71 62,24 120,46 187,71 67,24 144,51 192,69 47,18 64,26 84,48z"/>
  <g id="_677312272">
   <ellipse class="fil8 str0" cx="7637" cy="14596" rx="749" ry="703"/>
   <ellipse class="fil9 str0" cx="7695" cy="14542" rx="222" ry="208"/>
  </g>
  <path class="fil4" d="M10131 14031c-20,22 -42,57 -69,95 -27,38 -60,78 -69,133 -9,54 5,122 14,162 9,40 12,53 16,62 3,10 6,16 34,-12 29,-27 84,-88 150,-145 67,-57 145,-110 223,-165 78,-54 156,-109 236,-157 80,-48 161,-90 202,-112 42,-21 42,-21 51,-48 8,-26 24,-78 32,-104 9,-26 9,-27 -19,-18 -28,9 -84,28 -146,50 -62,22 -129,48 -192,72 -62,24 -120,46 -187,70 -67,25 -145,52 -192,70 -47,17 -65,26 -84,47z"/>
  <g id="_677311216">
   <ellipse class="fil8 str0" cx="10825" cy="14589" rx="749" ry="703"/>
   <ellipse class="fil9 str0" cx="10723" cy="14542" rx="222" ry="208"/>
  </g>
  <path class="fil11" d="M11456 9676c80,376 132,753 223,1039l39 6c470,78 935,165 1269,232 335,67 541,114 659,141 118,27 149,35 165,38 15,4 15,4 -111,-114 -127,-118 -380,-354 -742,-596 -362,-242 -833,-489 -1292,-668 -70,-28 -140,-53 -210,-78z"/>
  <path class="fil4 str1" d="M7747 12108c-48,98 -118,195 -210,325 -92,129 -207,290 -295,418 -89,128 -152,224 -183,268 -32,44 -32,37 -30,4 1,-34 3,-95 30,-183 27,-89 78,-205 161,-364 82,-158 197,-359 296,-525 99,-167 183,-300 223,-365 41,-65 39,-63 48,-69 9,-6 30,-20 43,12 13,31 18,108 6,196 -12,87 -40,185 -89,283z"/>
  <path class="fil4 str1" d="M8302 11742c-16,58 -43,119 -79,200 -35,81 -80,181 -113,260 -34,80 -58,139 -70,166 -12,28 -13,24 -16,6 -3,-19 -9,-52 -4,-103 5,-51 20,-120 47,-216 27,-95 67,-217 102,-318 36,-102 66,-184 81,-224 15,-40 14,-38 19,-42 4,-5 14,-14 24,1 11,16 22,57 25,106 4,49 -1,105 -16,164z"/>
  <path class="fil9 str0" d="M5629 12085c184,-66 575,-201 906,-297 331,-95 621,-187 786,-221 166,-34 248,-18 320,-27 93,-25 276,-47 402,-56 138,-11 207,-8 237,-4 29,3 17,6 -9,50 -25,43 -65,125 -123,317 -57,192 -133,492 -185,692 -52,200 -80,299 -97,371 -18,71 -25,115 -32,143 -8,28 -16,40 -23,4 -8,-36 -15,-120 -13,-257 3,-137 14,-327 26,-522 12,-195 23,-395 23,-508 -1,-112 -14,-137 -30,-149 -14,-11 -30,-13 -56,-10 -15,37 -45,90 -89,166 -98,167 -266,447 -401,736 -135,289 -237,587 -310,850 -72,264 -114,492 -142,623 -28,130 -42,163 -53,172 -12,9 -21,-5 -28,-221 -7,-217 -12,-637 -19,-858 -7,-221 -16,-245 -42,-182 -26,63 -67,212 -125,583 -57,370 -129,961 -161,1311 -32,349 -23,456 -39,480 -17,25 -59,-33 -108,-185 -49,-152 -105,-397 -161,-569 -55,-171 -111,-269 -170,-344 -58,-74 -118,-126 -181,-128 -63,-2 -129,44 -175,75 -47,30 -75,44 -96,23 -21,-21 -35,-77 -42,-114 -7,-38 -7,-56 -16,-66 -9,-9 -28,-9 -86,28 -58,38 -156,112 -275,180 -119,67 -259,128 -336,156 -77,28 -91,23 -100,14 -9,-9 -14,-23 68,-110 81,-86 249,-244 382,-382 133,-137 231,-254 277,-331 47,-77 42,-114 16,-118 -25,-5 -72,23 -167,58 -96,35 -240,77 -345,95 -105,19 -170,14 -231,12 -60,-2 -116,-2 -144,-2 -28,0 -28,0 14,-19 42,-19 125,-56 240,-130 114,-75 258,-187 386,-306 129,-119 240,-244 338,-387 98,-142 182,-300 229,-406 46,-107 56,-161 57,-190 1,-30 -6,-34 -47,-27 -40,7 -114,26 -163,38 -48,11 -72,15 113,-51z"/>
  <path class="fil12" d="M11260 13037c-5,81 -7,234 -1,348 6,114 20,190 30,247 9,58 15,98 27,91 13,-6 31,-59 46,-115 14,-56 25,-115 34,-177 9,-61 18,-125 21,-156 4,-31 2,-29 -17,-79 -19,-50 -56,-152 -79,-203 -24,-52 -34,-53 -42,-50 -9,4 -15,13 -19,94z"/>
  <path class="fil9 str0" d="M9509 11608c66,131 197,385 321,672 125,287 244,606 324,835 81,230 123,370 155,493 33,124 56,231 71,274 16,43 22,22 57,-104 35,-125 98,-356 159,-594 60,-238 119,-482 149,-686 30,-204 33,-367 44,-474 12,-107 33,-159 46,-187 13,-28 17,-32 27,-15 9,18 23,57 81,232 58,175 161,485 254,719 93,234 177,393 273,550 95,157 202,313 255,401 52,87 50,106 37,39 -13,-66 -36,-218 -57,-366 -21,-148 -40,-292 -51,-418 -12,-126 -17,-233 -22,-321 -6,-89 -13,-159 -11,-192 2,-32 14,-27 61,60 46,87 128,257 187,458 60,200 97,431 127,616 31,185 54,325 75,493 21,168 39,363 52,474 13,111 20,136 33,119 13,-18 31,-78 48,-148 16,-70 30,-149 50,-218 20,-69 45,-127 63,-163 17,-36 27,-50 35,-48 8,3 15,21 16,63 1,42 -4,107 -3,191 1,83 7,184 10,235 3,51 3,51 33,9 29,-41 88,-124 141,-190 53,-65 100,-114 137,-145 37,-30 65,-42 91,-43 26,-1 49,8 81,35 33,27 75,71 94,102 18,30 14,46 75,48 62,3 190,-9 306,-23 115,-14 218,-30 271,-44 54,-14 58,-26 33,-49 -26,-23 -82,-58 -145,-114 -63,-56 -133,-133 -205,-237 -72,-103 -147,-234 -208,-424 -62,-190 -111,-439 -147,-646 -36,-208 -60,-373 -79,-498 -20,-125 -36,-208 -21,-252 15,-43 61,-45 70,-50 8,-4 -23,-11 -115,-38 -92,-27 -245,-73 -428,-128 -183,-55 -395,-118 -653,-181 -258,-63 -561,-126 -808,-166 -246,-40 -435,-58 -630,-73 -195,-16 -396,-30 -535,-35 -140,-5 -218,-2 -256,4 -38,7 -35,16 32,148z"/>
  <line class="fil2 str0" x1="11760" y1="13393" x2="10131" y2= "14009" />
  <path class="fil2 str0" d="M14980 14480c-149,107 -557,317 -747,278"/>
  <path class="fil2 str0" d="M14746 14369c-149,107 -557,317 -747,278"/>
  <path class="fil2 str0" d="M14477 14276c-115,83 -431,246 -577,216"/>
  <path class="fil2 str0" d="M13423 14500c-61,44 -227,129 -304,113"/>
  <path class="fil2 str0" d="M13611 14552c-88,64 -329,188 -441,165"/>
  <path class="fil2 str0" d="M13793 14631c-114,82 -425,242 -570,213"/>
  <path class="fil7 str0" d="M11697 16212c39,-4 116,-15 236,-89 119,-73 280,-208 417,-352 138,-145 252,-299 336,-438 84,-140 137,-266 183,-402 45,-137 82,-283 100,-373 17,-89 14,-121 0,-153 -13,-31 -37,-62 -57,-86 -20,-23 -37,-39 -59,-53 -22,-13 -49,-25 -71,-29 -21,-3 -38,2 -61,17 -24,15 -54,40 -82,66 -28,27 -53,55 -91,103 -38,48 -89,116 -119,155 -30,39 -39,49 -50,71 -10,22 -23,56 -59,139 -36,83 -96,217 -164,368 -68,152 -144,323 -217,481 -73,159 -142,304 -187,396 -44,92 -64,129 -75,150 -11,21 -14,26 -16,29 -1,4 -2,5 36,0z"/>
  <path class="fil2 str0" d="M11817 15905c63,-13 125,-26 203,-78 78,-52 172,-143 226,-206 55,-63 71,-98 80,-115 8,-18 8,-18 8,-18"/>
  <path class="fil2 str0" d="M12503 15198c28,-94 55,-188 68,-261 12,-73 10,-124 -6,-149 -16,-24 -45,-21 -59,-20 -15,1 -15,1 -15,1"/>
  <path class="fil2 str0" d="M10632 15405c128,7 256,14 395,10 138,-3 287,-17 412,-58 125,-41 225,-109 275,-142 50,-34 50,-34 50,-34"/>
  <path class="fil2 str0" d="M11411 15242c34,61 68,123 84,153 17,31 17,31 17,31 0,0 0,0 0,0"/>
  <path class="fil2 str0" d="M11100 15335c30,58 60,116 91,174"/>
  <path class="fil9 str0" d="M11497 16606c53,65 159,194 213,253 55,60 58,50 59,-72 1,-121 -1,-355 -2,-471 -1,-117 -1,-117 -2,-117 -1,1 -3,1 -21,3 -18,3 -52,7 -70,12 -18,5 -20,10 -29,27 -9,16 -26,44 -55,88 -28,45 -70,106 -97,143 -28,37 -41,50 -46,58 -6,7 -4,10 50,76z"/>
  <path class="fil10" d="M11092 15667c4,0 4,2 2,7 -2,4 -5,12 -7,19 -3,7 -6,14 -21,53 -15,39 -44,110 -59,150 -15,39 -17,48 -39,13 -22,-34 -64,-112 -85,-150 -20,-39 -20,-39 -21,-41 -1,-1 -3,-5 -5,-8 -1,-3 -3,-5 1,-6 3,-1 11,-1 24,-3 13,-2 31,-7 53,-11 22,-4 49,-6 72,-10 23,-3 42,-6 57,-9 14,-2 24,-4 28,-4z"/>
  <path class="fil12" d="M12314 15568c25,-38 55,-85 106,-160 50,-75 120,-177 180,-289 60,-112 110,-233 136,-324 26,-92 30,-155 16,-191 -14,-37 -44,-48 -77,-33 -33,16 -69,57 -131,143 -61,86 -149,216 -202,314 -54,97 -74,162 -83,241 -9,79 -8,173 -9,242 0,69 -3,114 7,121 10,7 31,-25 57,-64z"/>
  <path class="fil2 str0" d="M12246 15621c-3,-107 -7,-214 -4,-292 3,-78 13,-127 42,-201 29,-73 78,-171 131,-254 54,-82 112,-150 161,-203 49,-54 89,-94 119,-118 30,-25 51,-34 63,-39 11,-4 14,-4 16,-4"/>
  <path class="fil2 str0" d="M12564 15131c27,-94 55,-189 67,-262 13,-72 11,-124 -5,-148 -16,-24 -45,-22 -59,-21 -15,2 -15,2 -15,2"/>
  <path class="fil2 str0" d="M11817 15905c63,-13 125,-26 203,-78 78,-52 172,-143 226,-206 55,-63 71,-98 80,-115 8,-18 8,-18 8,-18"/>
  <path class="fil2 str0" d="M5226 11598c-114,-5 -416,107 -534,153"/>
  <path class="fil2 str0" d="M5072 11539c-153,-7 -555,142 -712,203"/>
  <path class="fil2 str0" d="M5093 11763c-153,-6 -555,143 -712,204"/>
  <path class="fil2 str0" d="M5285 11841c-153,-7 -555,142 -712,203"/>
  <path class="fil2 str0" d="M5452 11987c-152,-6 -554,143 -711,204"/>
  <path class="fil12" d="M6316 15504c-42,5 -162,-30 -250,-97 -89,-68 -145,-168 -191,-275 -46,-108 -82,-222 -99,-309 -17,-86 -14,-144 -5,-171 10,-27 26,-24 52,-3 26,21 62,58 117,137 56,78 132,197 181,280 49,83 71,129 95,178 24,48 50,97 63,125 12,27 11,33 28,58 17,26 52,72 9,77z"/>
  <path class="fil2 str0" d="M3973 12345c-111,0 -386,41 -465,127"/>
  <path class="fil2 str0" d="M4172 12407c-98,0 -339,36 -409,112"/>
  <path class="fil2 str0" d="M3887 12789c-92,33 -307,148 -347,243"/>
  <path class="fil2 str0" d="M3636 14648c215,104 784,284 1019,192"/>
  <path class="fil2 str0" d="M3515 14395c145,104 542,308 726,270"/>
  <path class="fil2 str0" d="M3598 14276c90,65 336,192 451,168"/>
  <path class="fil2 str0" d="M4408 11609c-167,-8 -607,155 -779,222"/>
  <path class="fil2 str0" d="M2883 12636c-104,38 -349,169 -395,277"/>
  <path class="fil2 str0" d="M3091 12628c-91,33 -307,148 -347,243"/>
  <path class="fil2 str0" d="M3263 12709c-134,49 -450,218 -509,357"/>
  <path class="fil2 str0" d="M3466 12772c-135,48 -451,217 -509,356"/>
  <path class="fil2 str0" d="M2358 13849c116,84 435,248 583,217"/>
  <path class="fil2 str0" d="M2533 13759c94,67 349,198 467,174"/>
  <path class="fil2 str0" d="M2553 13637c93,67 349,199 467,174"/>
  <path class="fil2 str0" d="M3611 12122c-143,0 -497,53 -600,164"/>
  <path class="fil2 str0" d="M3781 12249c-143,0 -498,53 -600,164"/>
  <path class="fil2 str0" d="M3679 12797c-104,38 -349,169 -395,277"/>
  <path class="fil2 str0" d="M1799 12922c-64,60 -199,232 -198,324"/>
  <path class="fil2 str0" d="M1953 13016c-55,40 -174,161 -181,232"/>
  <path class="fil2 str0" d="M1444 13506c34,81 150,267 237,297"/>
  <path class="fil2 str0" d="M1474 13380c34,81 150,267 237,297"/>
  <path class="fil2 str0" d="M2468 12549c-135,48 -451,217 -510,356"/>
  <path class="fil2 str0" d="M2670 12611c-134,48 -450,217 -509,357"/>
  <path class="fil2 str0" d="M2080 13056c-48,35 -153,142 -159,204"/>
  <path class="fil2 str0" d="M2088 14002c116,84 435,248 583,217"/>
  <path class="fil2 str0" d="M2134 13910c116,84 435,248 583,218"/>
  <path class="fil2 str0" d="M1609 12855c-66,83 -197,314 -179,425"/>
  <path class="fil2 str0" d="M5729 14864c20,22 40,43 66,58 26,14 59,22 84,21 25,-1 42,-10 60,-22 18,-11 37,-25 48,-34 10,-8 12,-11 15,-14"/>
  <path class="fil2 str0" d="M6000 15408c-3,-48 -7,-96 14,-151 20,-55 65,-118 110,-181"/>
  <path class="fil2 str0" d="M6580 15943c-85,-40 -170,-80 -237,-134 -68,-55 -118,-125 -137,-180 -18,-56 -6,-97 22,-141 28,-45 71,-94 95,-120 23,-27 27,-30 30,-34"/>
  <path class="fil2 str0" d="M5644 14482c69,55 139,111 214,198 74,86 154,202 224,321 69,119 130,240 174,323 45,83 73,127 82,150 9,23 0,26 -9,28"/>
  <path class="fil2 str0" d="M6091 19661c675,2 1349,4 1709,18 359,13 403,39 499,117 97,78 245,209 320,274 75,66 77,67 80,69"/>
  <path class="fil2 str0" d="M12107 19661c-675,2 -1349,4 -1709,18 -359,13 -404,39 -500,117 -96,78 -244,209 -319,274 -75,66 -77,67 -80,69"/>
  <path class="fil13" d="M6620 21537c-95,20 -184,-29 -227,-63 -43,-34 -41,-53 -41,-36 0,16 -4,67 9,113 12,46 40,87 71,117 30,29 64,46 98,56 34,11 69,15 99,18 30,3 55,6 92,-5 36,-10 84,-34 119,-64 36,-31 59,-70 70,-93 11,-24 10,-32 10,-69 0,-38 0,-105 -51,-93 -51,11 -153,100 -249,119z"/>
  <path class="fil14 str0" d="M6556 21089c-87,0 -147,21 -196,63 -49,42 -87,105 -99,169 -13,65 1,131 35,182 33,51 85,86 152,108 66,23 146,34 220,18 73,-16 140,-58 185,-107 46,-49 70,-105 70,-171 0,-66 -24,-143 -94,-192 -70,-49 -186,-70 -273,-70z"/>
  <path class="fil13" d="M6526 21426c-99,-1 -150,-32 -190,-39 -40,-8 -68,8 -66,40 2,32 35,80 71,114 35,34 74,55 114,67 40,12 81,16 116,20 35,4 64,7 107,-5 43,-12 99,-40 140,-76 42,-36 68,-81 81,-108 13,-28 13,-37 13,-46 1,-9 2,-17 -70,-6 -72,10 -218,40 -316,39z"/>
 </g>
</svg>
